<?xml version="1.0" encoding="UTF-8"?>
<!DOCTYPE svg PUBLIC "-//W3C//DTD SVG 1.1//EN" "http://www.w3.org/Graphics/SVG/1.1/DTD/svg11.dtd">
<svg xmlns="http://www.w3.org/2000/svg" version="1.1" width="360px" height="360px" style="shape-rendering:geometricPrecision; text-rendering:geometricPrecision; image-rendering:optimizeQuality; fill-rule:evenodd; clip-rule:evenodd" xmlns:xlink="http://www.w3.org/1999/xlink">
<g><path style="opacity:1" fill="#fdfefd" d="M -0.5,-0.5 C 4.5,-0.5 9.5,-0.5 14.5,-0.5C 14.5,4.5 14.5,9.5 14.5,14.5C 9.5,14.5 4.5,14.5 -0.5,14.5C -0.5,9.5 -0.5,4.5 -0.5,-0.5 Z"/></g>
<g><path style="opacity:1" fill="#414142" d="M 110.5,-0.5 C 130.5,-0.5 150.5,-0.5 170.5,-0.5C 170.5,-0.166667 170.5,0.166667 170.5,0.5C 170.5,1.16667 170.5,1.83333 170.5,2.5C 170.5,3.83333 170.5,5.16667 170.5,6.5C 170.085,15.5818 170.085,24.4151 170.5,33C 137.043,67.9579 103.043,102.458 68.5,136.5C 65.5873,138.901 65.9206,140.234 69.5,140.5C 103.167,140.5 136.833,140.5 170.5,140.5C 170.5,141.5 170.5,142.5 170.5,143.5C 170.5,143.833 170.5,144.167 170.5,144.5C 170.5,145.5 170.5,146.5 170.5,147.5C 169.451,173.024 169.451,199.357 170.5,226.5C 197.339,226.169 224.005,226.502 250.5,227.5C 250.5,227.833 250.5,228.167 250.5,228.5C 249.833,228.5 249.5,228.833 249.5,229.5C 248.508,229.328 247.842,229.662 247.5,230.5C 227.19,252.477 206.19,273.81 184.5,294.5C 179.748,299.244 175.415,304.244 171.5,309.5C 170.784,311.556 170.117,313.723 169.5,316C 169.721,330.28 170.054,344.446 170.5,358.5C 170.5,358.833 170.5,359.167 170.5,359.5C 139.833,359.5 109.167,359.5 78.5,359.5C 25.9542,352.616 -0.37911,322.616 -0.5,269.5C -0.5,208.833 -0.5,148.167 -0.5,87.5C -0.593031,67.2092 4.90697,48.5425 16,31.5C 29.6591,14.2471 47.4925,4.08046 69.5,1C 83.3395,0.831087 97.0061,0.331087 110.5,-0.5 Z"/></g>
<g><path style="opacity:1" fill="#fdfdfd" d="M 170.5,0.5 C 170.5,0.166667 170.5,-0.166667 170.5,-0.5C 176.833,-0.5 183.167,-0.5 189.5,-0.5C 189.5,0.166667 189.167,0.5 188.5,0.5C 185.1,0.730985 183.1,2.56432 182.5,6C 182.833,17 183.167,28 183.5,39C 182.745,41.1748 181.912,43.3415 181,45.5C 155.987,70.0133 131.153,94.68 106.5,119.5C 105.248,121.001 104.248,122.668 103.5,124.5C 104.833,125.5 104.833,126.5 103.5,127.5C 104.929,129.878 106.762,131.212 109,131.5C 134.495,130.795 158.828,130.795 182,131.5C 182.374,132.416 182.874,133.25 183.5,134C 183.556,158.809 183.223,183.476 182.5,208C 184.331,215.511 189.165,218.678 197,217.5C 225.151,216.605 253.151,216.271 281,216.5C 283.349,218.744 282.849,219.911 279.5,220C 249.057,251.447 217.89,282.947 186,314.5C 184.311,316.76 183.144,319.26 182.5,322C 182.5,334 182.5,346 182.5,358C 183.094,358.464 183.761,358.631 184.5,358.5C 185.167,358.5 185.5,358.833 185.5,359.5C 181.5,359.5 177.5,359.5 173.5,359.5C 173.5,358.833 173.833,358.5 174.5,358.5C 175.065,343.286 175.898,327.952 177,312.5C 202.667,286.833 228.333,261.167 254,235.5C 256.511,231.2 255.678,227.867 251.5,225.5C 225.5,225.5 199.5,225.5 173.5,225.5C 174.657,199.239 174.823,172.905 174,146.5C 173.578,144.574 172.411,143.574 170.5,143.5C 170.5,142.5 170.5,141.5 170.5,140.5C 137.833,139.833 105.167,139.167 72.5,138.5C 74.2624,138.643 75.9291,138.309 77.5,137.5C 109.459,105.041 141.626,72.7073 174,40.5C 175.135,29.0203 175.968,17.5203 176.5,6C 175.9,2.56432 173.9,0.730985 170.5,0.5 Z"/></g>
<g><path style="opacity:1" fill="#fdfefd" d="M 329.5,-0.5 C 334.5,-0.5 339.5,-0.5 344.5,-0.5C 344.5,4.5 344.5,9.5 344.5,14.5C 339.5,14.5 334.5,14.5 329.5,14.5C 329.5,9.5 329.5,4.5 329.5,-0.5 Z"/></g>
<g><path style="opacity:1" fill="#edefee" d="M 344.5,-0.5 C 349.5,-0.5 354.5,-0.5 359.5,-0.5C 359.5,4.5 359.5,9.5 359.5,14.5C 354.5,14.5 349.5,14.5 344.5,14.5C 344.5,9.5 344.5,4.5 344.5,-0.5 Z"/></g>
<g><path style="opacity:1" fill="#e6e6e6" d="M 170.5,0.5 C 173.9,0.730985 175.9,2.56432 176.5,6C 175.968,17.5203 175.135,29.0203 174,40.5C 141.626,72.7073 109.459,105.041 77.5,137.5C 75.9291,138.309 74.2624,138.643 72.5,138.5C 105.527,104.639 139.027,71.306 173,38.5C 174.977,26.82 174.977,15.1533 173,3.5C 172.329,2.74756 171.496,2.41423 170.5,2.5C 170.5,1.83333 170.5,1.16667 170.5,0.5 Z"/></g>
<g><path style="opacity:1" fill="#ec6842" d="M 189.5,-0.5 C 205.833,-0.5 222.167,-0.5 238.5,-0.5C 256.695,0.0979977 275.028,0.931331 293.5,2C 326.182,8.35103 347.016,27.5177 356,59.5C 357.593,68.2593 358.759,76.9259 359.5,85.5C 359.5,148.5 359.5,211.5 359.5,274.5C 359.553,300.895 349.886,323.062 330.5,341C 313.726,353.756 294.726,359.589 273.5,358.5C 245.5,358.5 217.5,358.5 189.5,358.5C 189.5,344.167 189.5,329.833 189.5,315.5C 221.833,282.833 254.167,250.167 286.5,217.5C 287.833,216.833 288.833,215.833 289.5,214.5C 290.5,214.167 291.167,213.5 291.5,212.5C 292.5,211.833 293.5,211.167 294.5,210.5C 295.338,210.158 295.672,209.492 295.5,208.5C 260.167,208.5 224.833,208.5 189.5,208.5C 189.831,179.995 189.498,151.662 188.5,123.5C 163.167,123.5 137.833,123.5 112.5,123.5C 110.833,123.5 109.167,123.5 107.5,123.5C 107.5,123.167 107.5,122.833 107.5,122.5C 133.833,96.8333 159.833,70.8333 185.5,44.5C 186.458,44.0472 187.292,43.3805 188,42.5C 188.5,29.1708 188.667,15.8375 188.5,2.5C 188.5,1.83333 188.5,1.16667 188.5,0.5C 189.167,0.5 189.5,0.166667 189.5,-0.5 Z"/></g>
<g><path style="opacity:1" fill="#bebfbe" d="M 188.5,2.5 C 188.667,15.8375 188.5,29.1708 188,42.5C 187.292,43.3805 186.458,44.0472 185.5,44.5C 186.677,42.8974 186.511,41.564 185,40.5C 184.333,28.8333 184.333,17.1667 185,5.5C 185.422,3.5743 186.589,2.5743 188.5,2.5 Z"/></g>
<g><path style="opacity:1" fill="#303030" d="M 118.5,3.5 C 119.678,4.66189 120.845,5.66189 122,6.5C 122.333,5.83333 122.667,5.16667 123,4.5C 123.741,5.64055 124.575,5.64055 125.5,4.5C 126.541,6.99134 127.374,6.99134 128,4.5C 128.667,5.83333 129.333,5.83333 130,4.5C 130.333,5.16667 130.667,5.83333 131,6.5C 132.449,5.38589 133.783,4.38589 135,3.5C 135.333,4.16667 135.667,4.83333 136,5.5C 141.719,4.69507 147.553,4.36174 153.5,4.5C 154.478,4.97665 155.311,5.64332 156,6.5C 157.46,4.57755 159.127,3.91089 161,4.5C 161.903,5.70143 163.069,6.53476 164.5,7C 162.122,7.97448 162.456,8.64114 165.5,9C 164.287,12.8391 164.287,17.0058 165.5,21.5C 165.182,22.6473 164.516,23.4806 163.5,24C 166.167,24.6667 166.167,25.3333 163.5,26C 166.167,26.6667 166.167,27.3333 163.5,28C 164.554,29.3876 164.72,30.8876 164,32.5C 163.667,31.5 163.333,30.5 163,29.5C 161.89,31.3969 161.724,33.2302 162.5,35C 159.246,36.6102 156.746,39.1102 155,42.5C 154.016,40.2053 153.183,40.5386 152.5,43.5C 153.855,44.6753 153.688,45.6753 152,46.5C 148.992,44.9682 147.158,45.9682 146.5,49.5C 147.855,50.6753 147.688,51.6753 146,52.5C 145.667,52.1667 145.333,51.8333 145,51.5C 144.276,53.9589 142.943,54.9589 141,54.5C 141.617,56.0948 141.284,57.4281 140,58.5C 138.984,57.3659 138.317,57.6992 138,59.5C 137.667,58.8333 137.333,58.1667 137,57.5C 136.727,59.3289 135.893,60.8289 134.5,62C 135.654,62.9138 135.487,63.7471 134,64.5C 132.984,63.3659 132.317,63.6992 132,65.5C 131.667,64.8333 131.333,64.1667 131,63.5C 130.727,65.3289 129.893,66.8289 128.5,68C 129.654,68.9138 129.487,69.7471 128,70.5C 126.16,69.1669 125.66,69.3335 126.5,71C 124.049,72.9666 121.382,74.6333 118.5,76C 121.167,76.6667 121.167,77.3333 118.5,78C 118.833,78.3333 119.167,78.6667 119.5,79C 117.926,79.3357 116.592,80.1691 115.5,81.5C 114.914,81.2907 114.414,80.9574 114,80.5C 112.206,83.701 110.206,86.701 108,89.5C 107.667,88.8333 107.333,88.1667 107,87.5C 106.727,89.3289 105.893,90.8289 104.5,92C 105.654,92.9138 105.487,93.7471 104,94.5C 102.984,93.3659 102.317,93.6992 102,95.5C 101.667,94.8333 101.333,94.1667 101,93.5C 99.621,96.0357 98.621,98.369 98,100.5C 96.984,99.3659 96.3173,99.6992 96,101.5C 95.6667,100.833 95.3333,100.167 95,99.5C 94.7265,101.329 93.8932,102.829 92.5,104C 93.6537,104.914 93.487,105.747 92,106.5C 90.1598,105.167 89.6598,105.334 90.5,107C 84.478,113.376 78.478,119.043 72.5,124C 73.6537,124.914 73.487,125.747 72,126.5C 70.1598,125.167 69.6598,125.334 70.5,127C 68.9512,128.214 67.7845,129.714 67,131.5C 66.6667,130.833 66.3333,130.167 66,129.5C 65.8008,131.402 64.9675,132.902 63.5,134C 66.1667,134.667 66.1667,135.333 63.5,136C 65.689,136.677 66.0224,137.844 64.5,139.5C 66.1566,142.974 68.3232,145.308 71,146.5C 72.1544,144.043 73.4877,144.043 75,146.5C 76.7646,145.761 78.7646,145.761 81,146.5C 82.9426,144.285 84.6093,144.285 86,146.5C 86.3076,145.692 86.8076,145.025 87.5,144.5C 88.4255,145.641 89.2588,145.641 90,144.5C 90.6259,146.991 91.4593,146.991 92.5,144.5C 93.4255,145.641 94.2588,145.641 95,144.5C 95.6667,147.167 96.3333,147.167 97,144.5C 97.6667,145.167 98.3333,145.833 99,146.5C 100.808,146.112 102.475,146.112 104,146.5C 104.689,145.643 105.522,144.977 106.5,144.5C 107.5,145.833 108.5,145.833 109.5,144.5C 110.192,145.025 110.692,145.692 111,146.5C 111.308,145.692 111.808,145.025 112.5,144.5C 113.5,145.833 114.5,145.833 115.5,144.5C 116.541,146.991 117.374,146.991 118,144.5C 118.667,147.167 119.333,147.167 120,144.5C 121.572,146.589 123.405,146.589 125.5,144.5C 126.5,145.833 127.5,145.833 128.5,144.5C 130.098,146.973 131.598,146.973 133,144.5C 134.333,147.167 135.667,147.167 137,144.5C 138.333,147.167 139.667,147.167 141,144.5C 141.667,147.167 142.333,147.167 143,144.5C 144.333,147.167 145.667,147.167 147,144.5C 147.626,146.991 148.459,146.991 149.5,144.5C 151.5,144.5 153.5,144.5 155.5,144.5C 156.478,144.977 157.311,145.643 158,146.5C 159.016,145.366 159.683,145.699 160,147.5C 160.333,146.833 160.667,146.167 161,145.5C 161.667,146.833 162.333,148.167 163,149.5C 163.805,147.099 164.638,147.266 165.5,150C 165.193,151.682 164.86,153.348 164.5,155C 164.759,156.261 165.426,157.261 166.5,158C 163.833,160 163.833,162 166.5,164C 165.541,165.707 164.875,167.541 164.5,169.5C 164.958,176.585 164.958,183.585 164.5,190.5C 166.406,193.293 166.406,196.293 164.5,199.5C 164.5,203.5 164.5,207.5 164.5,211.5C 164.76,213.187 165.427,214.687 166.5,216C 165.762,217.824 165.428,219.824 165.5,222C 168.167,222.667 168.167,223.333 165.5,224C 167.863,224.589 168.863,226.089 168.5,228.5C 170.39,228.297 171.89,228.963 173,230.5C 173.974,228.122 174.641,228.456 175,231.5C 175.667,228.833 176.333,228.833 177,231.5C 177.667,228.833 178.333,228.833 179,231.5C 195.597,230.988 212.264,230.655 229,230.5C 230.261,230.759 231.261,231.426 232,232.5C 232.333,232.167 232.667,231.833 233,231.5C 233.667,235.5 234.333,235.5 235,231.5C 237.162,235.206 235.995,237.206 231.5,237.5C 231.543,241.893 231.043,242.226 230,238.5C 229.691,239.766 229.191,240.933 228.5,242C 229.654,242.914 229.487,243.747 228,244.5C 227.586,244.043 227.086,243.709 226.5,243.5C 224.416,245.956 222.916,248.29 222,250.5C 221.282,249.549 220.449,249.383 219.5,250C 220.451,250.718 220.617,251.551 220,252.5C 217.527,254.167 214.694,256.001 211.5,258C 212.28,259.073 212.113,260.24 211,261.5C 210.195,259.099 209.362,259.266 208.5,262C 209.654,262.914 209.487,263.747 208,264.5C 207.586,264.043 207.086,263.709 206.5,263.5C 205.416,264.665 204.583,265.998 204,267.5C 202.334,266.66 202.167,267.16 203.5,269C 202.333,270.167 201.167,271.333 200,272.5C 199.667,272.167 199.333,271.833 199,271.5C 197.667,273.5 196.333,275.5 195,277.5C 194.667,276.833 194.333,276.167 194,275.5C 192.236,278.179 190.569,280.846 189,283.5C 188.667,282.833 188.333,282.167 188,281.5C 185.894,283.377 184.561,285.71 184,288.5C 183.667,287.5 183.333,286.5 183,285.5C 181.295,289.682 179.295,293.016 177,295.5C 176.667,294.833 176.333,294.167 176,293.5C 175.581,297.852 174.914,298.185 174,294.5C 172,298.167 170,301.833 168,305.5C 167.667,304.833 167.333,304.167 167,303.5C 166.257,305.441 166.424,307.274 167.5,309C 166.643,309.689 165.977,310.522 165.5,311.5C 166.035,313.581 166.369,315.747 166.5,318C 165.541,319.707 164.875,321.541 164.5,323.5C 164.781,326.552 164.781,329.552 164.5,332.5C 166.406,335.293 166.406,338.293 164.5,341.5C 166.057,344.082 165.723,346.249 163.5,348C 164.167,348.667 164.833,349.333 165.5,350C 163.522,352.233 161.355,353.4 159,353.5C 158.374,355.991 157.541,355.991 156.5,353.5C 140.833,353.5 125.167,353.5 109.5,353.5C 108.522,353.977 107.689,354.643 107,355.5C 104.667,354.5 102.333,353.5 100,352.5C 99.3333,355.167 98.6667,355.167 98,352.5C 97.3333,355.167 96.6667,355.167 96,352.5C 95.3333,355.167 94.6667,355.167 94,352.5C 93.3333,355.167 92.6667,355.167 92,352.5C 91.3333,355.167 90.6667,355.167 90,352.5C 88.5981,354.973 87.0981,354.973 85.5,352.5C 84.8076,353.025 84.3076,353.692 84,354.5C 81.6667,351.833 79.3333,351.833 77,354.5C 76.6411,351.456 75.9745,351.122 75,353.5C 74.3333,350.833 73.6667,350.833 73,353.5C 72.6667,352.833 72.3333,352.167 72,351.5C 70.7318,351.616 69.3985,351.949 68,352.5C 66.6914,350.109 65.6914,350.109 65,352.5C 63.5507,351.386 62.2173,350.386 61,349.5C 60.6667,350.167 60.3333,350.833 60,351.5C 59,350.167 58,348.833 57,347.5C 56.4309,351.361 55.5976,351.361 54.5,347.5C 53.1575,348.902 52.3242,348.569 52,346.5C 51.0255,348.878 50.3589,348.544 50,345.5C 49.0255,347.878 48.3589,347.544 48,344.5C 47.3333,347.167 46.6667,347.167 46,344.5C 45.6667,344.833 45.3333,345.167 45,345.5C 43.2602,344.284 42.2602,342.618 42,340.5C 41.6411,343.544 40.9745,343.878 40,341.5C 39.0862,342.654 38.2529,342.487 37.5,341C 38.3402,339.334 37.8402,339.167 36,340.5C 34.2417,339.531 33.7417,338.364 34.5,337C 32.1667,336 29.8333,335 27.5,334C 28.5,333.667 29.5,333.333 30.5,333C 26.5473,332.047 24.3806,329.547 24,325.5C 23.6667,326.5 23.3333,327.5 23,328.5C 22.4784,325.504 20.9784,323.171 18.5,321.5C 18.8165,318.913 17.4832,317.08 14.5,316C 16.9011,315.195 16.7344,314.362 14,313.5C 13.3828,312.551 13.5494,311.718 14.5,311C 11.4557,310.641 11.1224,309.974 13.5,309C 10.0569,308.779 9.72359,307.779 12.5,306C 11.0137,303.186 9.34701,300.519 7.5,298C 10.1667,297.333 10.1667,296.667 7.5,296C 10.1667,295.333 10.1667,294.667 7.5,294C 7.83333,293 8.16667,292 8.5,291C 7.83333,289.667 6.83333,288.667 5.5,288C 6.30806,287.692 6.97473,287.192 7.5,286.5C 7.89363,284.576 7.22697,282.743 5.5,281C 7.43266,277.491 7.43266,274.158 5.5,271C 6.83333,267 6.83333,263 5.5,259C 7.7811,257.518 7.7811,255.851 5.5,254C 5.9675,236.554 6.30084,219.721 6.5,203.5C 5.83333,202.167 5.16667,200.833 4.5,199.5C 5.76698,197.629 5.76698,195.796 4.5,194C 7.16667,193.333 7.16667,192.667 4.5,192C 7.16667,191.333 7.16667,190.667 4.5,190C 7.16667,189.333 7.16667,188.667 4.5,188C 7.16667,187.333 7.16667,186.667 4.5,186C 6.99134,185.374 6.99134,184.541 4.5,183.5C 5.79938,180.301 5.79938,177.135 4.5,174C 6.99134,173.374 6.99134,172.541 4.5,171.5C 5.78834,168.966 5.78834,166.466 4.5,164C 6.99134,163.374 6.99134,162.541 4.5,161.5C 5.78834,158.966 5.78834,156.466 4.5,154C 6.99134,153.374 6.99134,152.541 4.5,151.5C 5.78834,148.966 5.78834,146.466 4.5,144C 6.99134,143.374 6.99134,142.541 4.5,141.5C 5.76698,139.629 5.76698,137.796 4.5,136C 6.99134,135.374 6.99134,134.541 4.5,133.5C 5.76698,131.629 5.76698,129.796 4.5,128C 6.99134,127.374 6.99134,126.541 4.5,125.5C 5.12721,122.298 5.79388,119.131 6.5,116C 5.95989,106.439 5.62656,96.772 5.5,87C 8.11704,84.4199 8.11704,81.4199 5.5,78C 8.16667,77.3333 8.16667,76.6667 5.5,76C 8.16667,75.3333 8.16667,74.6667 5.5,74C 8.16667,73.3333 8.16667,72.6667 5.5,72C 9.5,71.3333 9.5,70.6667 5.5,70C 8.24945,68.6538 8.58278,67.3204 6.5,66C 11.1016,64.4624 11.4349,62.4624 7.5,60C 10.5443,59.6411 10.8776,58.9745 8.5,58C 9.5,57 10.5,56 11.5,55C 10.8333,54.6667 10.1667,54.3333 9.5,54C 12.1562,52.9971 13.1562,51.3304 12.5,49C 13.5,48 14.5,47 15.5,46C 14.4829,44.9505 14.3162,43.7839 15,42.5C 15.3333,43.1667 15.6667,43.8333 16,44.5C 17.2106,41.2409 19.0439,38.4075 21.5,36C 21.1667,35.6667 20.8333,35.3333 20.5,35C 23.7306,32.2727 26.3972,29.106 28.5,25.5C 29.6753,26.8549 30.6753,26.6883 31.5,25C 30.3543,22.4428 31.3543,21.1095 34.5,21C 35.3617,18.2656 36.195,18.0989 37,20.5C 38,18.8333 39,17.1667 40,15.5C 40.3333,16.1667 40.6667,16.8333 41,17.5C 42.9847,16.5837 44.9847,14.917 47,12.5C 48,12.8333 49,13.1667 50,13.5C 51.1011,11.6061 52.4345,10.9394 54,11.5C 54.9147,10.6721 55.5814,9.67209 56,8.5C 56.6667,11.1667 57.3333,11.1667 58,8.5C 58.6667,9.16667 59.3333,9.83333 60,10.5C 61.705,8.02276 63.705,6.68942 66,6.5C 66.6667,9.16667 67.3333,9.16667 68,6.5C 69.6667,6.83333 71.3333,7.16667 73,7.5C 74.3086,5.10882 75.3086,5.10882 76,7.5C 77.4493,6.38589 78.7827,5.38589 80,4.5C 80.6667,7.16667 81.3333,7.16667 82,4.5C 82.6667,7.16667 83.3333,7.16667 84,4.5C 84.6667,7.16667 85.3333,7.16667 86,4.5C 86.6667,5.16667 87.3333,5.83333 88,6.5C 89.3333,6.5 90.6667,6.5 92,6.5C 93.3333,3.83333 94.6667,3.83333 96,6.5C 97.4823,4.2189 99.149,4.2189 101,6.5C 101.667,5.83333 102.333,5.16667 103,4.5C 108.194,4.33253 113.194,4.66587 118,5.5C 118.464,4.90558 118.631,4.23891 118.5,3.5 Z"/></g>
<g><path style="opacity:1" fill="#eb5e32" d="M 295.5,208.5 C 295.607,206.621 295.107,206.288 294,207.5C 292.294,204.726 290.294,203.059 288,202.5C 287.309,204.891 286.309,204.891 285,202.5C 284.333,205.167 283.667,205.167 283,202.5C 282.333,203.167 281.667,203.833 281,204.5C 279.192,204.112 277.525,204.112 276,204.5C 275.085,203.672 274.419,202.672 274,201.5C 273.641,204.544 272.974,204.878 272,202.5C 270.899,204.394 269.566,205.061 268,204.5C 267.085,203.672 266.419,202.672 266,201.5C 265.641,204.544 264.974,204.878 264,202.5C 262.899,204.394 261.566,205.061 260,204.5C 259.085,203.672 258.419,202.672 258,201.5C 257.641,204.544 256.974,204.878 256,202.5C 254.899,204.394 253.566,205.061 252,204.5C 251.085,203.672 250.419,202.672 250,201.5C 249.641,204.544 248.974,204.878 248,202.5C 246.899,204.394 245.566,205.061 244,204.5C 243.085,203.672 242.419,202.672 242,201.5C 241.641,204.544 240.974,204.878 240,202.5C 238.899,204.394 237.566,205.061 236,204.5C 235.085,203.672 234.419,202.672 234,201.5C 233.641,204.544 232.974,204.878 232,202.5C 230.899,204.394 229.566,205.061 228,204.5C 227.085,203.672 226.419,202.672 226,201.5C 225.641,204.544 224.974,204.878 224,202.5C 222.899,204.394 221.566,205.061 220,204.5C 219.085,203.672 218.419,202.672 218,201.5C 217.641,204.544 216.974,204.878 216,202.5C 214.667,205.167 213.333,205.167 212,202.5C 211.026,204.878 210.359,204.544 210,201.5C 209.131,204.763 207.797,205.096 206,202.5C 205.667,203.167 205.333,203.833 205,204.5C 203.33,202.302 201.33,201.968 199,203.5C 198.641,200.456 197.974,200.122 197,202.5C 196.358,200.238 195.525,198.071 194.5,196C 195.833,176.667 195.833,157.333 194.5,138C 195.167,137 195.833,136 196.5,135C 195.426,134.261 194.759,133.261 194.5,132C 195.205,130.578 195.539,129.245 195.5,128C 194.074,125.156 192.574,122.322 191,119.5C 189.84,121.797 188.84,121.464 188,118.5C 187.374,120.991 186.541,120.991 185.5,118.5C 183.216,119.416 182.049,118.416 182,115.5C 181.667,116.833 181.333,118.167 181,119.5C 180.716,117.114 179.716,116.448 178,117.5C 177.667,116.833 177.333,116.167 177,115.5C 176.581,116.672 175.915,117.672 175,118.5C 166.422,117.412 157.755,117.412 149,118.5C 147.667,115.833 146.333,115.833 145,118.5C 143.691,116.109 142.691,116.109 142,118.5C 141.333,115.833 140.667,115.833 140,118.5C 139.309,116.109 138.309,116.109 137,118.5C 135.691,116.109 134.691,116.109 134,118.5C 133.333,115.833 132.667,115.833 132,118.5C 131.333,115.833 130.667,115.833 130,118.5C 129.333,115.833 128.667,115.833 128,118.5C 127.683,116.699 127.016,116.366 126,117.5C 123.266,116.638 123.099,115.805 125.5,115C 124.72,113.927 124.887,112.76 126,111.5C 126.333,112.167 126.667,112.833 127,113.5C 127.219,112.062 127.719,110.729 128.5,109.5C 131.183,106.984 133.683,104.317 136,101.5C 136.333,102.167 136.667,102.833 137,103.5C 138.458,101.04 140.291,98.8734 142.5,97C 142.167,96.6667 141.833,96.3333 141.5,96C 158.735,79.072 174.735,63.4054 189.5,49C 189.167,48.6667 188.833,48.3333 188.5,48C 192.852,47.5811 193.185,46.9145 189.5,46C 193.327,45.1614 194.66,42.9947 193.5,39.5C 193.818,38.3527 194.484,37.5194 195.5,37C 192.833,36.3333 192.833,35.6667 195.5,35C 192.833,34.3333 192.833,33.6667 195.5,33C 192.833,32.3333 192.833,31.6667 195.5,31C 192.833,30.3333 192.833,29.6667 195.5,29C 192.833,28.3333 192.833,27.6667 195.5,27C 192.833,26.3333 192.833,25.6667 195.5,25C 192.833,24.3333 192.833,23.6667 195.5,23C 192.833,22.3333 192.833,21.6667 195.5,21C 192.833,20.3333 192.833,19.6667 195.5,19C 192.833,18.3333 192.833,17.6667 195.5,17C 192.833,16.3333 192.833,15.6667 195.5,15C 194.833,14.6667 194.167,14.3333 193.5,14C 194.901,10.8215 197.067,7.6548 200,4.5C 200.626,6.99134 201.459,6.99134 202.5,4.5C 203.425,5.64055 204.259,5.64055 205,4.5C 205.667,7.16667 206.333,7.16667 207,4.5C 207.667,5.16667 208.333,5.83333 209,6.5C 218.086,5.99894 226.919,5.66561 235.5,5.5C 237.566,8.2981 239.066,7.96477 240,4.5C 240.333,5.16667 240.667,5.83333 241,6.5C 245.718,5.76197 250.551,5.42864 255.5,5.5C 257.098,7.97343 258.598,7.97343 260,5.5C 260.667,6.16667 261.333,6.83333 262,7.5C 264.478,6.55331 266.812,6.55331 269,7.5C 270.667,4.83333 272.333,4.83333 274,7.5C 274.667,6.83333 275.333,6.16667 276,5.5C 276.741,6.64055 277.575,6.64055 278.5,5.5C 279.541,7.99134 280.374,7.99134 281,5.5C 281.667,8.16667 282.333,8.16667 283,5.5C 283.333,6.16667 283.667,6.83333 284,7.5C 286.093,6.75387 288.093,6.42054 290,6.5C 290.667,9.16667 291.333,9.16667 292,6.5C 293.217,7.38589 294.551,8.38589 296,9.5C 296.667,6.83333 297.333,6.83333 298,9.5C 299.558,8.6548 300.558,9.32146 301,11.5C 301.333,10.8333 301.667,10.1667 302,9.5C 303.53,10.636 304.863,11.636 306,12.5C 306.333,11.8333 306.667,11.1667 307,10.5C 308.012,12.8642 309.345,14.1976 311,14.5C 311.974,12.1224 312.641,12.4557 313,15.5C 313.974,13.1224 314.641,13.4557 315,16.5C 315.333,15.8333 315.667,15.1667 316,14.5C 316.667,15.8333 317.333,17.1667 318,18.5C 318.333,17.8333 318.667,17.1667 319,16.5C 320.08,19.4832 321.913,20.8165 324.5,20.5C 325.251,21.376 325.751,22.376 326,23.5C 326.333,22.8333 326.667,22.1667 327,21.5C 329.267,23.7364 330.934,26.4031 332,29.5C 332.333,28.8333 332.667,28.1667 333,27.5C 333.5,29.3333 334.667,30.5 336.5,31C 335.833,31.3333 335.167,31.6667 334.5,32C 336.618,32.2602 338.284,33.2602 339.5,35C 339.167,35.3333 338.833,35.6667 338.5,36C 340.328,38.5264 342.328,40.8597 344.5,43C 343.833,43.3333 343.167,43.6667 342.5,44C 344.715,44.3876 346.048,45.3876 346.5,47C 344.122,47.9745 344.456,48.6411 347.5,49C 346.5,51.0907 347.167,52.7574 349.5,54C 349.043,54.414 348.709,54.914 348.5,55.5C 349.642,57.3785 350.642,59.2118 351.5,61C 351.335,62.1169 351.002,63.2836 350.5,64.5C 351.599,67.0291 352.599,69.5291 353.5,72C 352.762,73.824 352.428,75.824 352.5,78C 355.167,79.3333 355.167,80.6667 352.5,82C 353.167,82.6667 353.833,83.3333 354.5,84C 354.5,85.3333 354.5,86.6667 354.5,88C 352.109,89.3086 352.109,90.3086 354.5,91C 351.833,91.6667 351.833,92.3333 354.5,93C 351.833,93.6667 351.833,94.3333 354.5,95C 352.043,96.1544 352.043,97.4877 354.5,99C 354.5,100.333 354.5,101.667 354.5,103C 352.043,104.512 352.043,105.846 354.5,107C 351.833,107.667 351.833,108.333 354.5,109C 351.833,109.667 351.833,110.333 354.5,111C 351.833,111.667 351.833,112.333 354.5,113C 351.833,113.667 351.833,114.333 354.5,115C 351.833,115.667 351.833,116.333 354.5,117C 351.833,117.667 351.833,118.333 354.5,119C 351.833,119.667 351.833,120.333 354.5,121C 353.338,169.581 353.338,218.581 354.5,268C 353.672,268.915 352.672,269.581 351.5,270C 353.807,270.354 354.141,271.354 352.5,273C 354.756,274.834 354.756,276.501 352.5,278C 352.677,281.364 353.01,284.697 353.5,288C 352.364,289.53 351.364,290.863 350.5,292C 353.167,292.667 353.167,293.333 350.5,294C 350.665,295.117 350.998,296.284 351.5,297.5C 350.966,300.185 349.633,302.852 347.5,305.5C 348.55,307.102 347.883,307.935 345.5,308C 347.878,308.974 347.544,309.641 344.5,310C 348.449,310.807 348.449,311.307 344.5,311.5C 344.263,314.647 343.43,317.647 342,320.5C 341.667,319.5 341.333,318.5 341,317.5C 340.562,320.376 339.562,323.043 338,325.5C 337.667,324.833 337.333,324.167 337,323.5C 335.442,327.389 333.109,330.722 330,333.5C 329.667,332.833 329.333,332.167 329,331.5C 328.667,332.833 328.333,334.167 328,335.5C 327.667,335.167 327.333,334.833 327,334.5C 324.331,338.506 321.331,341.506 318,343.5C 315.223,342.553 313.223,343.553 312,346.5C 311.195,344.099 310.362,344.266 309.5,347C 306.535,346.556 304.035,347.723 302,350.5C 300.691,348.109 299.691,348.109 299,350.5C 297.413,349.273 296.079,349.606 295,351.5C 293.176,350.762 291.176,350.428 289,350.5C 288.333,353.167 287.667,353.167 287,350.5C 286.667,351.167 286.333,351.833 286,352.5C 283.522,353.447 281.188,353.447 279,352.5C 278.333,353.167 277.667,353.833 277,354.5C 275.47,353.364 274.137,352.364 273,351.5C 272.333,354.167 271.667,354.167 271,351.5C 269.84,353.797 268.84,353.464 268,350.5C 267,351.833 266,353.167 265,354.5C 264.581,350.148 263.914,349.815 263,353.5C 261.605,352.185 260.605,352.519 260,354.5C 259,353.167 258,351.833 257,350.5C 256.667,351.5 256.333,352.5 256,353.5C 251.549,353.041 247.049,352.708 242.5,352.5C 241.808,353.025 241.308,353.692 241,354.5C 239.846,352.043 238.512,352.043 237,354.5C 224.912,353.412 212.912,353.412 201,354.5C 200.085,353.672 199.419,352.672 199,351.5C 198.667,352.167 198.333,352.833 198,353.5C 197.682,351.939 196.849,350.772 195.5,350C 196.299,348.251 195.632,346.918 193.5,346C 196.167,345.333 196.167,344.667 193.5,344C 196.167,343.333 196.167,342.667 193.5,342C 196.167,341.333 196.167,340.667 193.5,340C 196.167,339.333 196.167,338.667 193.5,338C 196.167,337.333 196.167,336.667 193.5,336C 196.167,335.333 196.167,334.667 193.5,334C 196.167,333.333 196.167,332.667 193.5,332C 196.167,331.333 196.167,330.667 193.5,330C 196.167,329.333 196.167,328.667 193.5,328C 194.308,327.692 194.975,327.192 195.5,326.5C 194.227,324.016 194.227,321.516 195.5,319C 197.478,317.022 199.478,315.022 201.5,313C 200.833,312.667 200.167,312.333 199.5,312C 203.948,310.715 206.948,308.382 208.5,305C 208.167,304.667 207.833,304.333 207.5,304C 208.5,303.667 209.5,303.333 210.5,303C 210.167,302.667 209.833,302.333 209.5,302C 210.5,301.667 211.5,301.333 212.5,301C 211.66,299.334 212.16,299.167 214,300.5C 216.168,299.371 216.668,297.871 215.5,296C 219,295.167 221.167,293 222,289.5C 225.333,286.167 228.667,282.833 232,279.5C 232.333,279.833 232.667,280.167 233,280.5C 233.359,277.456 234.026,277.122 235,279.5C 237.72,276.445 240.053,273.112 242,269.5C 242.853,267.875 243.853,267.542 245,268.5C 245.359,265.456 246.026,265.122 247,267.5C 249.094,265.079 250.76,262.412 252,259.5C 252.333,260.167 252.667,260.833 253,261.5C 253.113,259.026 254.113,257.026 256,255.5C 256.333,255.833 256.667,256.167 257,256.5C 257.359,253.456 258.026,253.122 259,255.5C 259.5,254.333 260.333,253.5 261.5,253C 260.833,252.667 260.167,252.333 259.5,252C 260.667,251.5 261.5,250.667 262,249.5C 262.333,250.167 262.667,250.833 263,251.5C 263.333,250.167 263.667,248.833 264,247.5C 264.333,248.167 264.667,248.833 265,249.5C 267.094,247.079 268.76,244.412 270,241.5C 273.333,238.167 276.667,234.833 280,231.5C 280.333,231.833 280.667,232.167 281,232.5C 281.26,230.382 282.26,228.716 284,227.5C 284.333,227.833 284.667,228.167 285,228.5C 286.352,225.262 288.018,222.929 290,221.5C 290.333,222.167 290.667,222.833 291,223.5C 291.973,221.608 292.64,219.608 293,217.5C 293.333,218.167 293.667,218.833 294,219.5C 294.707,217.919 295.54,216.419 296.5,215C 296.442,212.769 296.108,210.602 295.5,208.5 Z"/></g>
<g><path style="opacity:1" fill="#7e7f7f" d="M 170.5,6.5 C 171.166,11.1547 171.499,15.9881 171.5,21C 171.596,26.9125 171.096,32.7459 170,38.5C 135.915,72.0838 102.415,106.084 69.5,140.5C 65.9206,140.234 65.5873,138.901 68.5,136.5C 103.043,102.458 137.043,67.9579 170.5,33C 170.085,24.4151 170.085,15.5818 170.5,6.5 Z"/></g>
<g><path style="opacity:1" fill="#f2f3f3" d="M 14.5,-0.5 C 46.5,-0.5 78.5,-0.5 110.5,-0.5C 97.0061,0.331087 83.3395,0.831087 69.5,1C 47.4925,4.08046 29.6591,14.2471 16,31.5C 4.90697,48.5425 -0.593031,67.2092 -0.5,87.5C -0.5,63.1667 -0.5,38.8333 -0.5,14.5C 4.5,14.5 9.5,14.5 14.5,14.5C 14.5,9.5 14.5,4.5 14.5,-0.5 Z"/></g>
<g><path style="opacity:1" fill="#fdfefd" d="M 344.5,14.5 C 349.5,14.5 354.5,14.5 359.5,14.5C 359.5,19.5 359.5,24.5 359.5,29.5C 354.5,29.5 349.5,29.5 344.5,29.5C 344.5,24.5 344.5,19.5 344.5,14.5 Z"/></g>
<g><path style="opacity:1" fill="#f0edec" d="M 238.5,-0.5 C 268.833,-0.5 299.167,-0.5 329.5,-0.5C 329.5,4.5 329.5,9.5 329.5,14.5C 334.5,14.5 339.5,14.5 344.5,14.5C 344.5,19.5 344.5,24.5 344.5,29.5C 349.5,29.5 354.5,29.5 359.5,29.5C 359.5,48.1667 359.5,66.8333 359.5,85.5C 358.759,76.9259 357.593,68.2593 356,59.5C 347.016,27.5177 326.182,8.35103 293.5,2C 275.028,0.931331 256.695,0.0979977 238.5,-0.5 Z"/></g>
<g><path style="opacity:1" fill="#bcbcbc" d="M 170.5,2.5 C 171.496,2.41423 172.329,2.74756 173,3.5C 174.977,15.1533 174.977,26.82 173,38.5C 139.027,71.306 105.527,104.639 72.5,138.5C 105.167,139.167 137.833,139.833 170.5,140.5C 136.833,140.5 103.167,140.5 69.5,140.5C 102.415,106.084 135.915,72.0838 170,38.5C 171.096,32.7459 171.596,26.9125 171.5,21C 171.499,15.9881 171.166,11.1547 170.5,6.5C 170.5,5.16667 170.5,3.83333 170.5,2.5 Z"/></g>
<g><path style="opacity:1" fill="#d4d4d3" d="M 107.5,122.5 C 107.5,122.833 107.5,123.167 107.5,123.5C 107.944,125.113 108.944,126.28 110.5,127C 134.406,127.172 158.239,127.672 182,128.5C 183.147,127.542 184.147,127.875 185,129.5C 185.374,130.416 185.874,131.25 186.5,132C 186.167,156.333 185.833,180.667 185.5,205C 185.934,207.901 187.101,210.401 189,212.5C 221.656,213.826 254.323,213.826 287,212.5C 288.376,212.684 289.209,213.351 289.5,214.5C 288.833,215.833 287.833,216.833 286.5,217.5C 286.047,216.542 285.381,215.708 284.5,215C 251.748,214.986 219.081,214.319 186.5,213C 185.809,211.933 185.309,210.766 185,209.5C 184.667,183.167 184.333,156.833 184,130.5C 179,129.833 174,129.167 169,128.5C 148.994,129.039 129.661,129.372 111,129.5C 109.108,128.87 107.441,127.87 106,126.5C 105.652,124.86 106.152,123.527 107.5,122.5 Z"/></g>
<g><path style="opacity:1" fill="#a4a4a5" d="M 107.5,123.5 C 109.167,123.5 110.833,123.5 112.5,123.5C 113.496,124.665 114.829,125.332 116.5,125.5C 120.932,125.642 125.432,125.309 130,124.5C 148.093,125.326 166.26,125.826 184.5,126C 186.35,126.69 187.684,127.856 188.5,129.5C 188.169,156.339 188.502,183.005 189.5,209.5C 190.531,210.249 191.698,210.915 193,211.5C 224.667,211.167 256.333,210.833 288,210.5C 289.113,211.305 290.279,211.972 291.5,212.5C 291.167,213.5 290.5,214.167 289.5,214.5C 289.209,213.351 288.376,212.684 287,212.5C 254.323,213.826 221.656,213.826 189,212.5C 187.101,210.401 185.934,207.901 185.5,205C 185.833,180.667 186.167,156.333 186.5,132C 185.874,131.25 185.374,130.416 185,129.5C 184.147,127.875 183.147,127.542 182,128.5C 158.239,127.672 134.406,127.172 110.5,127C 108.944,126.28 107.944,125.113 107.5,123.5 Z"/></g>
<g><path style="opacity:1" fill="#636464" d="M 112.5,123.5 C 137.833,123.5 163.167,123.5 188.5,123.5C 188.5,125.5 188.5,127.5 188.5,129.5C 187.684,127.856 186.35,126.69 184.5,126C 166.26,125.826 148.093,125.326 130,124.5C 125.432,125.309 120.932,125.642 116.5,125.5C 114.829,125.332 113.496,124.665 112.5,123.5 Z"/></g>
<g><path style="opacity:1" fill="#bc6a52" d="M 188.5,123.5 C 189.498,151.662 189.831,179.995 189.5,208.5C 224.833,208.5 260.167,208.5 295.5,208.5C 295.672,209.492 295.338,210.158 294.5,210.5C 259.671,209.502 224.671,209.168 189.5,209.5C 188.502,183.005 188.169,156.339 188.5,129.5C 188.5,127.5 188.5,125.5 188.5,123.5 Z"/></g>
<g><path style="opacity:1" fill="#eae9e9" d="M 188.5,0.5 C 188.5,1.16667 188.5,1.83333 188.5,2.5C 186.589,2.5743 185.422,3.5743 185,5.5C 184.333,17.1667 184.333,28.8333 185,40.5C 186.511,41.564 186.677,42.8974 185.5,44.5C 159.833,70.8333 133.833,96.8333 107.5,122.5C 106.152,123.527 105.652,124.86 106,126.5C 107.441,127.87 109.108,128.87 111,129.5C 129.661,129.372 148.994,129.039 169,128.5C 174,129.167 179,129.833 184,130.5C 184.333,156.833 184.667,183.167 185,209.5C 185.309,210.766 185.809,211.933 186.5,213C 219.081,214.319 251.748,214.986 284.5,215C 285.381,215.708 286.047,216.542 286.5,217.5C 254.167,250.167 221.833,282.833 189.5,315.5C 188.662,315.842 188.328,316.508 188.5,317.5C 187.149,320.023 185.983,322.689 185,325.5C 184.5,336.495 184.333,347.495 184.5,358.5C 183.761,358.631 183.094,358.464 182.5,358C 182.5,346 182.5,334 182.5,322C 183.144,319.26 184.311,316.76 186,314.5C 217.89,282.947 249.057,251.447 279.5,220C 282.849,219.911 283.349,218.744 281,216.5C 253.151,216.271 225.151,216.605 197,217.5C 189.165,218.678 184.331,215.511 182.5,208C 183.223,183.476 183.556,158.809 183.5,134C 182.874,133.25 182.374,132.416 182,131.5C 158.828,130.795 134.495,130.795 109,131.5C 106.762,131.212 104.929,129.878 103.5,127.5C 104.833,126.5 104.833,125.5 103.5,124.5C 104.248,122.668 105.248,121.001 106.5,119.5C 131.153,94.68 155.987,70.0133 181,45.5C 181.912,43.3415 182.745,41.1748 183.5,39C 183.167,28 182.833,17 182.5,6C 183.1,2.56432 185.1,0.730985 188.5,0.5 Z"/></g>
<g><path style="opacity:1" fill="#d4d5d3" d="M 170.5,144.5 C 170.5,144.167 170.5,143.833 170.5,143.5C 172.411,143.574 173.578,144.574 174,146.5C 174.823,172.905 174.657,199.239 173.5,225.5C 173.167,225.5 172.833,225.5 172.5,225.5C 172.667,198.831 172.5,172.165 172,145.5C 171.617,144.944 171.117,144.611 170.5,144.5 Z"/></g>
<g><path style="opacity:1" fill="#b3b4b3" d="M 170.5,144.5 C 171.117,144.611 171.617,144.944 172,145.5C 172.5,172.165 172.667,198.831 172.5,225.5C 171.833,199.5 171.167,173.5 170.5,147.5C 170.5,146.5 170.5,145.5 170.5,144.5 Z"/></g>
<g><path style="opacity:1" fill="#5e5f5f" d="M 189.5,209.5 C 224.671,209.168 259.671,209.502 294.5,210.5C 293.5,211.167 292.5,211.833 291.5,212.5C 290.279,211.972 289.113,211.305 288,210.5C 256.333,210.833 224.667,211.167 193,211.5C 191.698,210.915 190.531,210.249 189.5,209.5 Z"/></g>
<g><path style="opacity:1" fill="#8a8b8c" d="M 170.5,147.5 C 171.167,173.5 171.833,199.5 172.5,225.5C 172.833,225.5 173.167,225.5 173.5,225.5C 199.5,225.5 225.5,225.5 251.5,225.5C 251.672,226.492 251.338,227.158 250.5,227.5C 224.005,226.502 197.339,226.169 170.5,226.5C 169.451,199.357 169.451,173.024 170.5,147.5 Z"/></g>
<g><path style="opacity:1" fill="#edeeee" d="M 251.5,225.5 C 255.678,227.867 256.511,231.2 254,235.5C 228.333,261.167 202.667,286.833 177,312.5C 175.898,327.952 175.065,343.286 174.5,358.5C 174.03,342.404 174.53,326.404 176,310.5C 201.833,284.667 227.667,258.833 253.5,233C 253.018,231.992 252.852,230.825 253,229.5C 252.049,229.116 251.216,228.783 250.5,228.5C 250.5,228.167 250.5,227.833 250.5,227.5C 251.338,227.158 251.672,226.492 251.5,225.5 Z"/></g>
<g><path style="opacity:1" fill="#d0d0cf" d="M 250.5,228.5 C 251.216,228.783 252.049,229.116 253,229.5C 252.852,230.825 253.018,231.992 253.5,233C 227.667,258.833 201.833,284.667 176,310.5C 174.53,326.404 174.03,342.404 174.5,358.5C 173.833,358.5 173.5,358.833 173.5,359.5C 172.5,359.5 171.5,359.5 170.5,359.5C 170.5,359.167 170.5,358.833 170.5,358.5C 171.331,343.339 171.831,328.005 172,312.5C 172.377,311.058 173.21,310.058 174.5,309.5C 200.842,284.158 226.508,258.158 251.5,231.5C 250.757,230.818 250.091,230.151 249.5,229.5C 249.5,228.833 249.833,228.5 250.5,228.5 Z"/></g>
<g><path style="opacity:1" fill="#a7a7a7" d="M 249.5,229.5 C 250.091,230.151 250.757,230.818 251.5,231.5C 226.508,258.158 200.842,284.158 174.5,309.5C 174.5,308.833 174.5,308.167 174.5,307.5C 198.132,283.368 221.965,259.368 246,235.5C 246.608,233.846 247.108,232.179 247.5,230.5C 247.842,229.662 248.508,229.328 249.5,229.5 Z"/></g>
<g><path style="opacity:1" fill="#666867" d="M 247.5,230.5 C 247.108,232.179 246.608,233.846 246,235.5C 221.965,259.368 198.132,283.368 174.5,307.5C 173.5,308.167 172.5,308.833 171.5,309.5C 175.415,304.244 179.748,299.244 184.5,294.5C 206.19,273.81 227.19,252.477 247.5,230.5 Z"/></g>
<g><path style="opacity:1" fill="#858687" d="M 174.5,307.5 C 174.5,308.167 174.5,308.833 174.5,309.5C 173.21,310.058 172.377,311.058 172,312.5C 171.831,328.005 171.331,343.339 170.5,358.5C 170.054,344.446 169.721,330.28 169.5,316C 170.117,313.723 170.784,311.556 171.5,309.5C 172.5,308.833 173.5,308.167 174.5,307.5 Z"/></g>
<g><path style="opacity:1" fill="#eff0f0" d="M -0.5,269.5 C -0.37911,322.616 25.9542,352.616 78.5,359.5C 62.1667,359.5 45.8333,359.5 29.5,359.5C 29.5,354.5 29.5,349.5 29.5,344.5C 24.5,344.5 19.5,344.5 14.5,344.5C 14.5,339.5 14.5,334.5 14.5,329.5C 9.5,329.5 4.5,329.5 -0.5,329.5C -0.5,309.5 -0.5,289.5 -0.5,269.5 Z"/></g>
<g><path style="opacity:1" fill="#f6f5f5" d="M 359.5,274.5 C 359.5,302.833 359.5,331.167 359.5,359.5C 330.833,359.5 302.167,359.5 273.5,359.5C 273.5,359.167 273.5,358.833 273.5,358.5C 294.726,359.589 313.726,353.756 330.5,341C 349.886,323.062 359.553,300.895 359.5,274.5 Z"/></g>
<g><path style="opacity:1" fill="#bdbebd" d="M 188.5,317.5 C 188.5,331.5 188.5,345.5 188.5,359.5C 187.5,359.5 186.5,359.5 185.5,359.5C 185.5,358.833 185.167,358.5 184.5,358.5C 184.333,347.495 184.5,336.495 185,325.5C 185.983,322.689 187.149,320.023 188.5,317.5 Z"/></g>
<g><path style="opacity:1" fill="#fdfefd" d="M -0.5,329.5 C 4.5,329.5 9.5,329.5 14.5,329.5C 14.5,334.5 14.5,339.5 14.5,344.5C 9.5,344.5 4.5,344.5 -0.5,344.5C -0.5,339.5 -0.5,334.5 -0.5,329.5 Z"/></g>
<g><path style="opacity:1" fill="#edefee" d="M -0.5,344.5 C 4.5,344.5 9.5,344.5 14.5,344.5C 14.5,349.5 14.5,354.5 14.5,359.5C 9.5,359.5 4.5,359.5 -0.5,359.5C -0.5,354.5 -0.5,349.5 -0.5,344.5 Z"/></g>
<g><path style="opacity:1" fill="#fdfefd" d="M 14.5,344.5 C 19.5,344.5 24.5,344.5 29.5,344.5C 29.5,349.5 29.5,354.5 29.5,359.5C 24.5,359.5 19.5,359.5 14.5,359.5C 14.5,354.5 14.5,349.5 14.5,344.5 Z"/></g>
<g><path style="opacity:1" fill="#dd8067" d="M 189.5,315.5 C 189.5,329.833 189.5,344.167 189.5,358.5C 217.5,358.5 245.5,358.5 273.5,358.5C 273.5,358.833 273.5,359.167 273.5,359.5C 245.167,359.5 216.833,359.5 188.5,359.5C 188.5,345.5 188.5,331.5 188.5,317.5C 188.328,316.508 188.662,315.842 189.5,315.5 Z"/></g>
</svg>
