<?xml version="1.0" encoding="UTF-8"?>
<!DOCTYPE svg PUBLIC "-//W3C//DTD SVG 1.1//EN" "http://www.w3.org/Graphics/SVG/1.1/DTD/svg11.dtd">
<svg xmlns="http://www.w3.org/2000/svg" version="1.1" width="348px" height="287px" style="shape-rendering:geometricPrecision; text-rendering:geometricPrecision; image-rendering:optimizeQuality; fill-rule:evenodd; clip-rule:evenodd" xmlns:xlink="http://www.w3.org/1999/xlink">
<g><path style="opacity:1" fill="#fefffe" d="M -0.5,-0.5 C 4.5,-0.5 9.5,-0.5 14.5,-0.5C 14.5,4.5 14.5,9.5 14.5,14.5C 9.5,14.5 4.5,14.5 -0.5,14.5C -0.5,9.5 -0.5,4.5 -0.5,-0.5 Z"/></g>
<g><path style="opacity:1" fill="#edeeed" d="M 14.5,-0.5 C 19.5,-0.5 24.5,-0.5 29.5,-0.5C 29.5,4.5 29.5,9.5 29.5,14.5C 24.5,14.5 19.5,14.5 14.5,14.5C 14.5,9.5 14.5,4.5 14.5,-0.5 Z"/></g>
<g><path style="opacity:1" fill="#fefffe" d="M 29.5,-0.5 C 34.5,-0.5 39.5,-0.5 44.5,-0.5C 44.5,4.5 44.5,9.5 44.5,14.5C 39.5,14.5 34.5,14.5 29.5,14.5C 29.5,9.5 29.5,4.5 29.5,-0.5 Z"/></g>
<g><path style="opacity:1" fill="#edeeed" d="M 44.5,-0.5 C 49.5,-0.5 54.5,-0.5 59.5,-0.5C 59.5,4.5 59.5,9.5 59.5,14.5C 54.5,14.5 49.5,14.5 44.5,14.5C 44.5,9.5 44.5,4.5 44.5,-0.5 Z"/></g>
<g><path style="opacity:1" fill="#fefffe" d="M 59.5,-0.5 C 64.5,-0.5 69.5,-0.5 74.5,-0.5C 74.5,4.5 74.5,9.5 74.5,14.5C 69.5,14.5 64.5,14.5 59.5,14.5C 59.5,9.5 59.5,4.5 59.5,-0.5 Z"/></g>
<g><path style="opacity:1" fill="#edeeed" d="M 74.5,-0.5 C 79.5,-0.5 84.5,-0.5 89.5,-0.5C 89.5,4.5 89.5,9.5 89.5,14.5C 84.5,14.5 79.5,14.5 74.5,14.5C 74.5,9.5 74.5,4.5 74.5,-0.5 Z"/></g>
<g><path style="opacity:1" fill="#f1f1f1" d="M 314.5,-0.5 C 325.5,-0.5 336.5,-0.5 347.5,-0.5C 347.5,95.1667 347.5,190.833 347.5,286.5C 341.5,286.5 335.5,286.5 329.5,286.5C 334.056,284.558 339.056,283.892 344.5,284.5C 344.5,279.5 344.5,274.5 344.5,269.5C 339.5,269.5 334.5,269.5 329.5,269.5C 329.5,264.5 329.5,259.5 329.5,254.5C 334.5,254.5 339.5,254.5 344.5,254.5C 344.5,249.5 344.5,244.5 344.5,239.5C 339.5,239.5 334.5,239.5 329.5,239.5C 329.5,234.5 329.5,229.5 329.5,224.5C 334.5,224.5 339.5,224.5 344.5,224.5C 344.5,219.5 344.5,214.5 344.5,209.5C 339.5,209.5 334.5,209.5 329.5,209.5C 329.5,204.5 329.5,199.5 329.5,194.5C 334.5,194.5 339.5,194.5 344.5,194.5C 344.5,189.5 344.5,184.5 344.5,179.5C 339.5,179.5 334.5,179.5 329.5,179.5C 329.5,174.5 329.5,169.5 329.5,164.5C 334.5,164.5 339.5,164.5 344.5,164.5C 344.5,159.5 344.5,154.5 344.5,149.5C 339.5,149.5 334.5,149.5 329.5,149.5C 329.5,144.5 329.5,139.5 329.5,134.5C 334.5,134.5 339.5,134.5 344.5,134.5C 344.5,129.5 344.5,124.5 344.5,119.5C 339.5,119.5 334.5,119.5 329.5,119.5C 329.5,114.5 329.5,109.5 329.5,104.5C 334.5,104.5 339.5,104.5 344.5,104.5C 344.5,99.5 344.5,94.5 344.5,89.5C 339.5,89.5 334.5,89.5 329.5,89.5C 329.5,84.5 329.5,79.5 329.5,74.5C 334.5,74.5 339.5,74.5 344.5,74.5C 344.5,69.5 344.5,64.5 344.5,59.5C 339.5,59.5 334.5,59.5 329.5,59.5C 329.5,54.5 329.5,49.5 329.5,44.5C 334.5,44.5 339.5,44.5 344.5,44.5C 344.5,39.5 344.5,34.5 344.5,29.5C 339.5,29.5 334.5,29.5 329.5,29.5C 329.5,24.5 329.5,19.5 329.5,14.5C 324.5,14.5 319.5,14.5 314.5,14.5C 314.5,9.5 314.5,4.5 314.5,-0.5 Z"/></g>
<g><path style="opacity:1" fill="#8ab364" d="M 241.5,9.5 C 244.9,11.037 248.233,12.8703 251.5,15C 253.141,16.129 254.141,17.629 254.5,19.5C 250.678,16.0134 246.345,13.3468 241.5,11.5C 198.5,10.1667 155.5,10.1667 112.5,11.5C 114.3,9.94965 116.467,8.94965 119,8.5C 159.645,8.18507 200.479,8.5184 241.5,9.5 Z"/></g>
<g><path style="opacity:1" fill="#edeeed" d="M -0.5,14.5 C 4.5,14.5 9.5,14.5 14.5,14.5C 14.5,19.5 14.5,24.5 14.5,29.5C 9.5,29.5 4.5,29.5 -0.5,29.5C -0.5,24.5 -0.5,19.5 -0.5,14.5 Z"/></g>
<g><path style="opacity:1" fill="#fefffe" d="M 14.5,14.5 C 19.5,14.5 24.5,14.5 29.5,14.5C 29.5,19.5 29.5,24.5 29.5,29.5C 24.5,29.5 19.5,29.5 14.5,29.5C 14.5,24.5 14.5,19.5 14.5,14.5 Z"/></g>
<g><path style="opacity:1" fill="#edeeed" d="M 29.5,14.5 C 34.5,14.5 39.5,14.5 44.5,14.5C 44.5,19.5 44.5,24.5 44.5,29.5C 39.5,29.5 34.5,29.5 29.5,29.5C 29.5,24.5 29.5,19.5 29.5,14.5 Z"/></g>
<g><path style="opacity:1" fill="#fefffe" d="M 44.5,14.5 C 49.5,14.5 54.5,14.5 59.5,14.5C 59.5,19.5 59.5,24.5 59.5,29.5C 54.5,29.5 49.5,29.5 44.5,29.5C 44.5,24.5 44.5,19.5 44.5,14.5 Z"/></g>
<g><path style="opacity:1" fill="#edeeed" d="M 59.5,14.5 C 64.5,14.5 69.5,14.5 74.5,14.5C 74.5,19.5 74.5,24.5 74.5,29.5C 69.5,29.5 64.5,29.5 59.5,29.5C 59.5,24.5 59.5,19.5 59.5,14.5 Z"/></g>
<g><path style="opacity:1" fill="#f8f8f8" d="M 239.5,-0.5 C 264.5,-0.5 289.5,-0.5 314.5,-0.5C 314.5,4.5 314.5,9.5 314.5,14.5C 319.5,14.5 324.5,14.5 329.5,14.5C 329.5,19.5 329.5,24.5 329.5,29.5C 334.5,29.5 339.5,29.5 344.5,29.5C 344.5,34.5 344.5,39.5 344.5,44.5C 339.5,44.5 334.5,44.5 329.5,44.5C 329.5,49.5 329.5,54.5 329.5,59.5C 334.5,59.5 339.5,59.5 344.5,59.5C 344.5,64.5 344.5,69.5 344.5,74.5C 339.5,74.5 334.5,74.5 329.5,74.5C 329.5,79.5 329.5,84.5 329.5,89.5C 324.5,89.5 319.5,89.5 314.5,89.5C 314.5,84.5 314.5,79.5 314.5,74.5C 309.5,74.5 304.5,74.5 299.5,74.5C 299.5,69.5 299.5,64.5 299.5,59.5C 294.5,59.5 289.5,59.5 284.5,59.5C 284.5,54.5 284.5,49.5 284.5,44.5C 279.5,44.5 274.5,44.5 269.5,44.5C 269.5,39.5 269.5,34.5 269.5,29.5C 266.833,29.5 264.167,29.5 261.5,29.5C 261.737,30.791 261.404,31.791 260.5,32.5C 259.976,30.6943 259.309,29.0276 258.5,27.5C 258.206,24.2459 256.873,21.5792 254.5,19.5C 254.141,17.629 253.141,16.129 251.5,15C 248.233,12.8703 244.9,11.037 241.5,9.5C 239.727,6.51184 239.06,3.17851 239.5,-0.5 Z"/></g>
<g><path style="opacity:1" fill="#60a221" d="M 222.5,49.5 C 223.645,50.7927 223.311,51.9593 221.5,53C 219.888,53.7203 218.388,53.5536 217,52.5C 216.727,54.3289 215.893,55.8289 214.5,57C 216.953,58.4843 219.286,59.3176 221.5,59.5C 219.876,62.1336 217.543,63.4669 214.5,63.5C 214.34,65.1992 214.506,66.8659 215,68.5C 215.654,67.3044 216.154,67.3044 216.5,68.5C 215.943,70.2352 215.61,71.9018 215.5,73.5C 217.001,75.9572 218.668,75.9572 220.5,73.5C 222.522,75.8807 222.855,78.5474 221.5,81.5C 222.978,81.238 224.311,81.5713 225.5,82.5C 225.331,84.1173 224.997,85.784 224.5,87.5C 223.325,86.1451 222.325,86.3117 221.5,88C 223.134,88.4935 224.801,88.6602 226.5,88.5C 226.187,85.7531 226.52,83.0865 227.5,80.5C 228.606,82.2844 228.606,84.1178 227.5,86C 227.974,88.7492 228.974,91.2492 230.5,93.5C 228.257,94.4742 225.924,94.8076 223.5,94.5C 223.728,92.6453 223.061,91.8119 221.5,92C 223.641,95.3426 223.141,98.5093 220,101.5C 219,100.167 218,100.167 217,101.5C 217.148,102.825 216.982,103.992 216.5,105C 217.872,105.402 219.205,105.902 220.5,106.5C 222.167,105.167 223.833,103.833 225.5,102.5C 225.833,102.667 226.167,102.833 226.5,103C 225.619,103.708 224.953,104.542 224.5,105.5C 222.461,106.911 221.461,108.911 221.5,111.5C 217.162,111.378 216.828,111.045 220.5,110.5C 219.971,106.808 218.471,106.142 216,108.5C 215.086,107.346 214.253,107.513 213.5,109C 214.205,110.557 213.539,111.723 211.5,112.5C 210.203,109.812 210.536,107.312 212.5,105C 208.965,104.93 205.965,106.263 203.5,109C 204.308,109.308 204.975,109.808 205.5,110.5C 203.48,112.599 203.146,114.933 204.5,117.5C 205.965,116.391 206.965,116.891 207.5,119C 205.623,120.185 203.623,121.185 201.5,122C 202.654,122.914 202.487,123.747 201,124.5C 200.282,123.549 199.449,123.383 198.5,124C 198.982,125.008 199.148,126.175 199,127.5C 200.073,126.72 201.24,126.887 202.5,128C 200.653,129.703 198.819,129.536 197,127.5C 196.085,128.328 195.419,129.328 195,130.5C 193.817,129.269 192.651,129.269 191.5,130.5C 192.46,131.812 192.294,133.146 191,134.5C 189.933,133.809 188.766,133.309 187.5,133C 188.448,132.517 189.448,132.351 190.5,132.5C 190.658,129.455 189.991,126.621 188.5,124C 189.624,123.751 190.624,123.251 191.5,122.5C 189.128,122.202 186.962,120.869 185,118.5C 184.309,120.891 183.309,120.891 182,118.5C 177.343,121.245 172.51,123.579 167.5,125.5C 184.103,116.075 201.103,107.409 218.5,99.5C 219.165,96.1833 219.499,92.6833 219.5,89C 219.488,85.0982 218.821,81.5982 217.5,78.5C 214.304,77.0713 211.304,75.4046 208.5,73.5C 202.815,69.1575 196.481,66.1575 189.5,64.5C 188.5,63.8333 187.5,63.1667 186.5,62.5C 182.814,59.7719 178.481,57.1052 173.5,54.5C 175.791,53.4579 176.791,51.9579 176.5,50C 177.715,47.9045 178.549,48.0712 179,50.5C 179.333,49.8333 179.667,49.1667 180,48.5C 181.912,50.9941 183.746,50.8274 185.5,48C 184.813,46.8382 184.647,45.6716 185,44.5C 186.297,45.7836 187.464,45.6169 188.5,44C 187.809,42.9326 187.309,41.7659 187,40.5C 186,40.8333 185,41.1667 184,41.5C 183.28,39.8876 183.446,38.3876 184.5,37C 182.862,36.758 181.362,35.9247 180,34.5C 178.734,36.1962 178.9,38.0295 180.5,40C 180.167,41 179.833,42 179.5,43C 180.833,43.6667 182.167,44.3333 183.5,45C 182.354,45.6449 181.354,46.4783 180.5,47.5C 178.169,47.55 176.003,47.2166 174,46.5C 173.46,48.1346 173.96,49.4679 175.5,50.5C 173.675,51.5709 172.508,50.9042 172,48.5C 169.907,49.2461 167.907,49.5795 166,49.5C 164.013,47.3209 164.18,45.4876 166.5,44C 164.337,42.5197 162.337,42.5197 160.5,44C 162.904,44.5079 163.571,45.6745 162.5,47.5C 158.602,45.0181 158.602,42.5181 162.5,40C 160.665,39.0723 160.332,37.9056 161.5,36.5C 160.017,34.0542 158.851,34.3876 158,37.5C 157.531,35.8917 156.865,34.2251 156,32.5C 155.333,33.1667 154.667,33.8333 154,34.5C 153.837,32.6133 154.671,31.1133 156.5,30C 155.5,29.6667 154.5,29.3333 153.5,29C 154.821,28.22 156.321,27.72 158,27.5C 159.737,28.6198 161.571,29.6198 163.5,30.5C 164.466,28.604 164.799,26.604 164.5,24.5C 166.355,24.728 167.188,24.0613 167,22.5C 165.301,23.4061 163.467,23.7394 161.5,23.5C 161.649,24.552 161.483,25.552 161,26.5C 160.64,24.5789 159.806,22.9122 158.5,21.5C 157.289,22.2739 157.289,23.1072 158.5,24C 157.833,24.6667 157.167,24.6667 156.5,24C 155.833,22 155.167,20 154.5,18C 156.567,17.4644 158.401,17.9644 160,19.5C 161.011,18.6634 162.178,18.33 163.5,18.5C 163.351,17.448 163.517,16.448 164,15.5C 165.692,17.3586 167.192,19.3586 168.5,21.5C 169.167,20.8333 169.833,20.1667 170.5,19.5C 171.333,20.5 172.167,21.5 173,22.5C 174.399,22.4988 175.899,22.1654 177.5,21.5C 178.5,22.8333 179.5,24.1667 180.5,25.5C 181.242,23.6503 182.242,22.9836 183.5,23.5C 182.975,22.8076 182.308,22.3076 181.5,22C 183.203,21.2547 184.87,20.4214 186.5,19.5C 187.167,19.6667 187.833,19.8333 188.5,20C 185.486,21.6716 183.486,23.6716 182.5,26C 184.056,27.599 185.723,29.099 187.5,30.5C 188.799,29.91 189.632,28.91 190,27.5C 190.483,28.448 190.649,29.448 190.5,30.5C 191.5,30.5 192.5,30.5 193.5,30.5C 193.351,29.448 193.517,28.448 194,27.5C 194.889,28.8882 195.389,28.7215 195.5,27C 194.305,25.4675 194.305,23.9675 195.5,22.5C 194.408,21.1691 193.074,20.3357 191.5,20C 192.126,19.2496 192.626,18.4162 193,17.5C 193.308,18.3081 193.808,18.9747 194.5,19.5C 196.936,18.1091 197.602,18.6091 196.5,21C 197.126,21.7504 197.626,22.5838 198,23.5C 198.637,21.6969 199.803,20.3636 201.5,19.5C 201.109,20.8905 201.942,21.8905 204,22.5C 204.915,21.6721 205.581,20.6721 206,19.5C 206.333,19.8333 206.667,20.1667 207,20.5C 207.483,19.552 207.649,18.552 207.5,17.5C 208.552,17.6495 209.552,17.4828 210.5,17C 209.304,16.3457 209.304,15.8457 210.5,15.5C 211.354,16.5217 212.354,17.3551 213.5,18C 213.167,19 212.833,20 212.5,21C 210.721,20.0209 209.055,20.3542 207.5,22C 210.076,22.2503 212.409,22.7503 214.5,23.5C 212.438,25.0919 212.105,26.9252 213.5,29C 208.712,30.0008 207.378,32.3342 209.5,36C 208.783,37.531 207.783,38.8643 206.5,40C 207.779,43.6512 210.445,46.6512 214.5,49C 213.007,50.1562 213.174,50.9896 215,51.5C 216.703,50.2998 218.203,50.6332 219.5,52.5C 220.855,51.8118 221.855,50.8118 222.5,49.5 Z"/></g>
<g><path style="opacity:1" fill="#8fb56b" d="M 107.5,13.5 C 105.167,16.5 102.5,19.1667 99.5,21.5C 101.167,17.8333 103.833,15.1667 107.5,13.5 Z"/></g>
<g><path style="opacity:1" fill="#61a321" d="M 241.5,11.5 C 246.345,13.3468 250.678,16.0134 254.5,19.5C 256.873,21.5792 258.206,24.2459 258.5,27.5C 258.5,67.5 258.5,107.5 258.5,147.5C 256.549,147.773 255.049,147.107 254,145.5C 252.582,147.363 250.749,147.863 248.5,147C 247.075,145.638 246.242,144.138 246,142.5C 244.883,142.665 243.716,142.998 242.5,143.5C 241.459,141.009 240.626,141.009 240,143.5C 237.817,141.924 235.651,140.258 233.5,138.5C 236.503,137.392 237.003,135.725 235,133.5C 234.667,134.167 234.333,134.833 234,135.5C 232.128,134.176 231.295,132.676 231.5,131C 232.5,130.333 233.5,130.333 234.5,131C 233.304,131.654 233.304,132.154 234.5,132.5C 235.427,130.887 236.261,129.221 237,127.5C 237.684,128.784 237.517,129.951 236.5,131C 237.5,133 238.5,133 239.5,131C 238.366,129.984 238.699,129.317 240.5,129C 238.494,128.151 237.828,126.985 238.5,125.5C 239.833,128.167 241.167,128.167 242.5,125.5C 244.07,125.694 245.57,125.694 247,125.5C 247.667,126.833 247.667,128.167 247,129.5C 245.006,126.916 244.506,127.082 245.5,130C 244.899,131.605 243.899,132.938 242.5,134C 242.944,135.533 243.277,137.033 243.5,138.5C 245.765,139.647 248.098,139.814 250.5,139C 249.809,137.933 249.309,136.766 249,135.5C 247.869,136.604 247.035,136.271 246.5,134.5C 248.413,133.08 250.747,132.414 253.5,132.5C 251.776,131.967 250.109,130.801 248.5,129C 251.167,127.333 251.167,125.667 248.5,124C 251.167,123.333 251.167,122.667 248.5,122C 249.459,119.31 248.792,118.976 246.5,121C 246.833,121.333 247.167,121.667 247.5,122C 243.504,123.514 239.504,124.014 235.5,123.5C 234.998,122.284 234.665,121.117 234.5,120C 238.542,116.197 238.376,112.697 234,109.5C 232.049,111.137 232.216,112.637 234.5,114C 232.108,114.233 229.608,115.066 227,116.5C 226.5,115.333 225.667,114.5 224.5,114C 225.819,112.372 227.152,112.539 228.5,114.5C 229.167,114.167 229.833,113.833 230.5,113.5C 229.911,111.627 230.578,109.96 232.5,108.5C 231.653,105.144 229.987,104.644 227.5,107C 228.956,107.423 229.456,108.256 229,109.5C 227.68,109.201 226.18,109.034 224.5,109C 227.125,107.607 227.125,106.441 224.5,105.5C 224.953,104.542 225.619,103.708 226.5,103C 226.167,102.833 225.833,102.667 225.5,102.5C 223.833,103.833 222.167,105.167 220.5,106.5C 219.205,105.902 217.872,105.402 216.5,105C 216.982,103.992 217.148,102.825 217,101.5C 218,100.167 219,100.167 220,101.5C 223.141,98.5093 223.641,95.3426 221.5,92C 223.061,91.8119 223.728,92.6453 223.5,94.5C 225.924,94.8076 228.257,94.4742 230.5,93.5C 228.974,91.2492 227.974,88.7492 227.5,86C 228.606,84.1178 228.606,82.2844 227.5,80.5C 226.52,83.0865 226.187,85.7531 226.5,88.5C 224.801,88.6602 223.134,88.4935 221.5,88C 222.325,86.3117 223.325,86.1451 224.5,87.5C 224.997,85.784 225.331,84.1173 225.5,82.5C 224.311,81.5713 222.978,81.238 221.5,81.5C 222.855,78.5474 222.522,75.8807 220.5,73.5C 218.668,75.9572 217.001,75.9572 215.5,73.5C 215.61,71.9018 215.943,70.2352 216.5,68.5C 216.154,67.3044 215.654,67.3044 215,68.5C 214.506,66.8659 214.34,65.1992 214.5,63.5C 217.543,63.4669 219.876,62.1336 221.5,59.5C 219.286,59.3176 216.953,58.4843 214.5,57C 215.893,55.8289 216.727,54.3289 217,52.5C 218.388,53.5536 219.888,53.7203 221.5,53C 223.311,51.9593 223.645,50.7927 222.5,49.5C 221.226,48.8106 221.226,47.9772 222.5,47C 220.391,45.8589 218.558,44.3589 217,42.5C 215.956,43.6226 215.29,44.9559 215,46.5C 214.333,45.1667 213.667,45.1667 213,46.5C 212.215,44.714 211.049,43.214 209.5,42C 211.387,41.8374 212.887,42.6707 214,44.5C 214.167,44 214.333,43.5 214.5,43C 213.66,41.2326 212.327,39.8993 210.5,39C 210.71,36.1133 212.543,34.28 216,33.5C 217.117,34.9494 217.784,36.6161 218,38.5C 219.403,36.8019 221.236,36.3019 223.5,37C 223.833,36.6667 224.167,36.3333 224.5,36C 222.5,35 220.5,34 218.5,33C 219.167,32.6667 219.833,32.3333 220.5,32C 219.167,31.3333 219.167,30.6667 220.5,30C 219.251,28.1759 218.085,28.3426 217,30.5C 215.77,29.7248 215.437,28.7248 216,27.5C 217.583,27.493 219.249,27.8263 221,28.5C 221.5,28 222,27.5 222.5,27C 220.833,26.6667 219.167,26.3333 217.5,26C 218.126,25.2496 218.626,24.4162 219,23.5C 221.26,25.9972 222.593,25.3305 223,21.5C 224,21.8333 225,22.1667 226,22.5C 228.668,21.0196 228.835,19.5196 226.5,18C 227.701,17.0975 228.535,15.9308 229,14.5C 230.824,15.7487 230.657,16.9153 228.5,18C 229.857,21.9334 232.024,23.1001 235,21.5C 235.974,23.8776 236.641,23.5443 237,20.5C 237.249,21.624 237.749,22.624 238.5,23.5C 238.132,21.4935 238.632,19.4935 240,17.5C 240.594,21.8184 242.094,22.3184 244.5,19C 242.833,17.6667 241.167,16.3333 239.5,15C 240.823,14.1841 241.489,13.0174 241.5,11.5 Z"/></g>
<g><path style="opacity:1" fill="#fefffe" d="M -0.5,29.5 C 4.5,29.5 9.5,29.5 14.5,29.5C 14.5,34.5 14.5,39.5 14.5,44.5C 9.5,44.5 4.5,44.5 -0.5,44.5C -0.5,39.5 -0.5,34.5 -0.5,29.5 Z"/></g>
<g><path style="opacity:1" fill="#edeeed" d="M 14.5,29.5 C 19.5,29.5 24.5,29.5 29.5,29.5C 29.5,34.5 29.5,39.5 29.5,44.5C 24.5,44.5 19.5,44.5 14.5,44.5C 14.5,39.5 14.5,34.5 14.5,29.5 Z"/></g>
<g><path style="opacity:1" fill="#fefffe" d="M 29.5,29.5 C 34.5,29.5 39.5,29.5 44.5,29.5C 44.5,34.5 44.5,39.5 44.5,44.5C 39.5,44.5 34.5,44.5 29.5,44.5C 29.5,39.5 29.5,34.5 29.5,29.5 Z"/></g>
<g><path style="opacity:1" fill="#edeeed" d="M 44.5,29.5 C 49.5,29.5 54.5,29.5 59.5,29.5C 59.5,34.5 59.5,39.5 59.5,44.5C 54.5,44.5 49.5,44.5 44.5,44.5C 44.5,39.5 44.5,34.5 44.5,29.5 Z"/></g>
<g><path style="opacity:1" fill="#fefffe" d="M 59.5,29.5 C 64.5,29.5 69.5,29.5 74.5,29.5C 74.5,34.5 74.5,39.5 74.5,44.5C 69.5,44.5 64.5,44.5 59.5,44.5C 59.5,39.5 59.5,34.5 59.5,29.5 Z"/></g>
<g><path style="opacity:1" fill="#89b262" d="M 258.5,27.5 C 259.309,29.0276 259.976,30.6943 260.5,32.5C 260.5,51.5 260.5,70.5 260.5,89.5C 260.667,109.836 260.5,130.169 260,150.5C 259.963,152.974 259.13,154.974 257.5,156.5C 258.299,153.57 258.632,150.57 258.5,147.5C 258.5,107.5 258.5,67.5 258.5,27.5 Z"/></g>
<g><path style="opacity:1" fill="#93b473" d="M 97.5,25.5 C 96.3611,67.4816 96.1944,109.482 97,151.5C 97.5046,153.518 98.0046,155.518 98.5,157.5C 98.5,157.833 98.5,158.167 98.5,158.5C 96.7329,156.208 95.7329,153.542 95.5,150.5C 95.3333,109.832 95.5,69.1653 96,28.5C 96.2321,27.2625 96.7321,26.2625 97.5,25.5 Z"/></g>
<g><path style="opacity:1" fill="#61a321" d="M 112.5,11.5 C 155.5,10.1667 198.5,10.1667 241.5,11.5C 241.489,13.0174 240.823,14.1841 239.5,15C 241.167,16.3333 242.833,17.6667 244.5,19C 242.094,22.3184 240.594,21.8184 240,17.5C 238.632,19.4935 238.132,21.4935 238.5,23.5C 237.749,22.624 237.249,21.624 237,20.5C 236.641,23.5443 235.974,23.8776 235,21.5C 232.024,23.1001 229.857,21.9334 228.5,18C 230.657,16.9153 230.824,15.7487 229,14.5C 228.535,15.9308 227.701,17.0975 226.5,18C 228.835,19.5196 228.668,21.0196 226,22.5C 225,22.1667 224,21.8333 223,21.5C 222.593,25.3305 221.26,25.9972 219,23.5C 218.626,24.4162 218.126,25.2496 217.5,26C 219.167,26.3333 220.833,26.6667 222.5,27C 222,27.5 221.5,28 221,28.5C 219.249,27.8263 217.583,27.493 216,27.5C 215.437,28.7248 215.77,29.7248 217,30.5C 218.085,28.3426 219.251,28.1759 220.5,30C 219.167,30.6667 219.167,31.3333 220.5,32C 219.833,32.3333 219.167,32.6667 218.5,33C 220.5,34 222.5,35 224.5,36C 224.167,36.3333 223.833,36.6667 223.5,37C 221.236,36.3019 219.403,36.8019 218,38.5C 217.784,36.6161 217.117,34.9494 216,33.5C 212.543,34.28 210.71,36.1133 210.5,39C 212.327,39.8993 213.66,41.2326 214.5,43C 214.333,43.5 214.167,44 214,44.5C 212.887,42.6707 211.387,41.8374 209.5,42C 211.049,43.214 212.215,44.714 213,46.5C 213.667,45.1667 214.333,45.1667 215,46.5C 215.29,44.9559 215.956,43.6226 217,42.5C 218.558,44.3589 220.391,45.8589 222.5,47C 221.226,47.9772 221.226,48.8106 222.5,49.5C 221.855,50.8118 220.855,51.8118 219.5,52.5C 218.203,50.6332 216.703,50.2998 215,51.5C 213.174,50.9896 213.007,50.1562 214.5,49C 210.445,46.6512 207.779,43.6512 206.5,40C 207.783,38.8643 208.783,37.531 209.5,36C 207.378,32.3342 208.712,30.0008 213.5,29C 212.105,26.9252 212.438,25.0919 214.5,23.5C 212.409,22.7503 210.076,22.2503 207.5,22C 209.055,20.3542 210.721,20.0209 212.5,21C 212.833,20 213.167,19 213.5,18C 212.354,17.3551 211.354,16.5217 210.5,15.5C 209.304,15.8457 209.304,16.3457 210.5,17C 209.552,17.4828 208.552,17.6495 207.5,17.5C 207.649,18.552 207.483,19.552 207,20.5C 206.667,20.1667 206.333,19.8333 206,19.5C 205.581,20.6721 204.915,21.6721 204,22.5C 201.942,21.8905 201.109,20.8905 201.5,19.5C 199.803,20.3636 198.637,21.6969 198,23.5C 197.626,22.5838 197.126,21.7504 196.5,21C 197.602,18.6091 196.936,18.1091 194.5,19.5C 193.808,18.9747 193.308,18.3081 193,17.5C 192.626,18.4162 192.126,19.2496 191.5,20C 193.074,20.3357 194.408,21.1691 195.5,22.5C 194.305,23.9675 194.305,25.4675 195.5,27C 195.389,28.7215 194.889,28.8882 194,27.5C 193.517,28.448 193.351,29.448 193.5,30.5C 192.5,30.5 191.5,30.5 190.5,30.5C 190.649,29.448 190.483,28.448 190,27.5C 189.632,28.91 188.799,29.91 187.5,30.5C 185.723,29.099 184.056,27.599 182.5,26C 183.486,23.6716 185.486,21.6716 188.5,20C 187.833,19.8333 187.167,19.6667 186.5,19.5C 184.87,20.4214 183.203,21.2547 181.5,22C 182.308,22.3076 182.975,22.8076 183.5,23.5C 182.242,22.9836 181.242,23.6503 180.5,25.5C 179.5,24.1667 178.5,22.8333 177.5,21.5C 175.899,22.1654 174.399,22.4988 173,22.5C 172.167,21.5 171.333,20.5 170.5,19.5C 169.833,20.1667 169.167,20.8333 168.5,21.5C 167.192,19.3586 165.692,17.3586 164,15.5C 163.517,16.448 163.351,17.448 163.5,18.5C 162.178,18.33 161.011,18.6634 160,19.5C 158.401,17.9644 156.567,17.4644 154.5,18C 155.167,20 155.833,22 156.5,24C 157.167,24.6667 157.833,24.6667 158.5,24C 157.289,23.1072 157.289,22.2739 158.5,21.5C 159.806,22.9122 160.64,24.5789 161,26.5C 161.483,25.552 161.649,24.552 161.5,23.5C 163.467,23.7394 165.301,23.4061 167,22.5C 167.188,24.0613 166.355,24.728 164.5,24.5C 164.799,26.604 164.466,28.604 163.5,30.5C 161.571,29.6198 159.737,28.6198 158,27.5C 156.321,27.72 154.821,28.22 153.5,29C 154.5,29.3333 155.5,29.6667 156.5,30C 154.671,31.1133 153.837,32.6133 154,34.5C 154.667,33.8333 155.333,33.1667 156,32.5C 156.865,34.2251 157.531,35.8917 158,37.5C 158.851,34.3876 160.017,34.0542 161.5,36.5C 160.332,37.9056 160.665,39.0723 162.5,40C 158.602,42.5181 158.602,45.0181 162.5,47.5C 163.571,45.6745 162.904,44.5079 160.5,44C 162.337,42.5197 164.337,42.5197 166.5,44C 164.18,45.4876 164.013,47.3209 166,49.5C 167.907,49.5795 169.907,49.2461 172,48.5C 172.508,50.9042 173.675,51.5709 175.5,50.5C 173.96,49.4679 173.46,48.1346 174,46.5C 176.003,47.2166 178.169,47.55 180.5,47.5C 181.354,46.4783 182.354,45.6449 183.5,45C 182.167,44.3333 180.833,43.6667 179.5,43C 179.833,42 180.167,41 180.5,40C 178.9,38.0295 178.734,36.1962 180,34.5C 181.362,35.9247 182.862,36.758 184.5,37C 183.446,38.3876 183.28,39.8876 184,41.5C 185,41.1667 186,40.8333 187,40.5C 187.309,41.7659 187.809,42.9326 188.5,44C 187.464,45.6169 186.297,45.7836 185,44.5C 184.647,45.6716 184.813,46.8382 185.5,48C 183.746,50.8274 181.912,50.9941 180,48.5C 179.667,49.1667 179.333,49.8333 179,50.5C 178.549,48.0712 177.715,47.9045 176.5,50C 176.791,51.9579 175.791,53.4579 173.5,54.5C 168.36,51.9276 163.027,49.9276 157.5,48.5C 157.5,47.8333 157.167,47.5 156.5,47.5C 152.557,44.5217 148.223,42.0217 143.5,40C 142.251,39.2599 141.251,39.4265 140.5,40.5C 140.5,47.1667 140.5,53.8333 140.5,60.5C 143.41,61.4252 146.076,62.7585 148.5,64.5C 148.389,65.1174 148.056,65.6174 147.5,66C 149.24,67.6844 150.406,69.5177 151,71.5C 150,70.8333 149,70.1667 148,69.5C 148.936,72.7265 147.769,73.7265 144.5,72.5C 143.713,73.2421 143.047,74.0754 142.5,75C 143.833,75 145.167,75 146.5,75C 150.029,81.1296 149.196,81.6296 144,76.5C 143.667,77.1667 143.333,77.8333 143,78.5C 142.124,76.275 140.957,74.275 139.5,72.5C 139.795,73.8255 139.295,75.1588 138,76.5C 136.602,75.9491 135.268,75.6158 134,75.5C 133.833,76.1667 133.667,76.8333 133.5,77.5C 135.43,77.7966 137.096,79.13 138.5,81.5C 139.167,80.8333 139.833,80.1667 140.5,79.5C 141.594,80.868 141.26,82.0347 139.5,83C 138.207,83.49 136.873,83.6567 135.5,83.5C 135.719,82.325 135.386,81.325 134.5,80.5C 134.36,81.5695 134.36,82.7361 134.5,84C 137.488,84.4286 140.155,85.5953 142.5,87.5C 139.566,88.7986 137.066,88.1319 135,85.5C 135.305,87.4432 135.305,89.4432 135,91.5C 134.632,90.09 133.799,89.09 132.5,88.5C 131.575,89.6405 130.741,89.6405 130,88.5C 129.333,89.5 129.333,90.5 130,91.5C 131.049,90.4829 132.216,90.3162 133.5,91C 131.205,91.9836 131.539,92.8169 134.5,93.5C 135.895,92.1854 136.895,92.5188 137.5,94.5C 136.975,95.1924 136.308,95.6924 135.5,96C 136.357,96.6891 137.023,97.5224 137.5,98.5C 136.092,99.2432 134.759,100.077 133.5,101C 136.028,102.017 136.028,103.184 133.5,104.5C 133.846,105.696 134.346,105.696 135,104.5C 135.667,105.5 135.667,106.5 135,107.5C 134.333,108.833 133.667,108.833 133,107.5C 132.333,108.5 132.333,109.5 133,110.5C 134.049,109.483 135.216,109.316 136.5,110C 134.266,110.969 132.266,112.302 130.5,114C 131.517,115.049 131.684,116.216 131,117.5C 130.163,115.993 128.996,115.493 127.5,116C 127.273,117.135 126.94,118.302 126.5,119.5C 124.723,118.099 123.056,116.599 121.5,115C 123.991,114.374 123.991,113.541 121.5,112.5C 122.053,110.273 122.053,107.939 121.5,105.5C 123.716,105.725 125.383,104.892 126.5,103C 124.65,103.595 122.65,104.095 120.5,104.5C 120.664,107.187 120.497,109.854 120,112.5C 119,109.5 118,106.5 117,103.5C 116.586,103.957 116.086,104.291 115.5,104.5C 113.447,100.588 111.28,100.588 109,104.5C 108.085,103.672 107.419,102.672 107,101.5C 106.259,102.641 105.425,102.641 104.5,101.5C 101.592,95.577 103.092,94.2436 109,97.5C 109.333,97.1667 109.667,96.8333 110,96.5C 109.566,94.8236 108.732,93.1569 107.5,91.5C 110.855,89.1884 111.188,85.8551 108.5,81.5C 108.808,80.6919 109.308,80.0253 110,79.5C 110.718,80.4506 111.551,80.6172 112.5,80C 111.764,76.8012 112.597,76.6345 115,79.5C 116.914,78.324 116.748,77.324 114.5,76.5C 115.833,75.3801 116.333,74.0468 116,72.5C 115.333,73.8333 114.667,73.8333 114,72.5C 113.667,73.1667 113.333,73.8333 113,74.5C 110.956,72.2521 111.123,70.2521 113.5,68.5C 112.635,68.4361 111.635,68.1027 110.5,67.5C 108.821,68.782 106.987,69.782 105,70.5C 103.915,68.3426 102.749,68.1759 101.5,70C 104.069,72.4794 106.402,75.146 108.5,78C 107.833,78.3333 107.167,78.6667 106.5,79C 107.622,80.6134 107.122,81.7801 105,82.5C 104.167,81.6667 103.333,80.8333 102.5,80C 106.251,79.2386 106.417,78.0719 103,76.5C 102.167,77.5 101.333,78.5 100.5,79.5C 99.8076,78.9747 99.3076,78.3081 99,77.5C 98.342,79.108 98.842,80.2747 100.5,81C 96.9153,82.6026 96.582,84.7693 99.5,87.5C 99.2907,88.086 98.9574,88.586 98.5,89C 101.714,89.3489 103.047,90.8489 102.5,93.5C 101.468,91.9604 100.135,91.4604 98.5,92C 99.8333,92.6667 99.8333,93.3333 98.5,94C 99.91,94.3678 100.91,95.2011 101.5,96.5C 100.359,97.4255 100.359,98.2588 101.5,99C 100.289,99.7869 99.2893,100.454 98.5,101C 99.5089,102.168 100.509,103.335 101.5,104.5C 100.675,105.386 99.675,105.719 98.5,105.5C 98.0162,108.798 99.0162,111.464 101.5,113.5C 99.8671,115.387 100.2,116.887 102.5,118C 101.672,118.915 100.672,119.581 99.5,120C 101.23,121.852 102.396,121.686 103,119.5C 103.293,121.925 104.459,123.758 106.5,125C 105.529,126.204 104.529,126.704 103.5,126.5C 104.033,128.224 105.199,129.891 107,131.5C 108.678,130.318 108.512,129.152 106.5,128C 106.667,127.5 106.833,127 107,126.5C 108.84,127.833 109.34,127.666 108.5,126C 111.108,122.228 113.608,122.061 116,125.5C 117.61,125.87 119.11,125.203 120.5,123.5C 121.82,125.27 123.32,125.603 125,124.5C 126.617,125.536 126.784,126.703 125.5,128C 131.017,133.479 130.351,134.479 123.5,131C 121.023,129.625 120.189,127.791 121,125.5C 119.47,126.636 118.137,127.636 117,128.5C 116.396,126.314 115.23,126.148 113.5,128C 113.306,129.43 113.306,130.93 113.5,132.5C 112.271,133.281 110.938,133.781 109.5,134C 110.654,134.914 110.487,135.747 109,136.5C 107.705,135.159 107.205,133.826 107.5,132.5C 105.95,135.129 106.616,136.963 109.5,138C 107.833,138.333 106.167,138.667 104.5,139C 105.253,140.487 106.086,140.654 107,139.5C 107.242,141.138 108.075,142.638 109.5,144C 108.289,145.844 106.956,146.678 105.5,146.5C 106.263,147.719 107.263,148.719 108.5,149.5C 107.975,150.192 107.308,150.692 106.5,151C 108.394,152.101 109.061,153.434 108.5,155C 106.892,155.469 105.225,156.135 103.5,157C 104.833,157.667 104.833,158.333 103.5,159C 105.901,159.805 105.734,160.638 103,161.5C 102.333,160.167 101.667,160.167 101,161.5C 100.878,159.563 100.045,158.23 98.5,157.5C 98.0046,155.518 97.5046,153.518 97,151.5C 96.1944,109.482 96.3611,67.4816 97.5,25.5C 97.6596,23.847 98.3263,22.5137 99.5,21.5C 102.5,19.1667 105.167,16.5 107.5,13.5C 108.73,12.3943 109.896,11.3943 111,10.5C 111.383,11.056 111.883,11.3893 112.5,11.5 Z"/></g>
<g><path style="opacity:1" fill="#f5f6f4" d="M 140.5,40.5 C 145.833,42.8333 151.167,45.1667 156.5,47.5C 157.167,47.5 157.5,47.8333 157.5,48.5C 166.951,53.5432 176.617,58.2099 186.5,62.5C 187.5,63.1667 188.5,63.8333 189.5,64.5C 195.463,68.0556 201.797,71.0556 208.5,73.5C 211.304,75.4046 214.304,77.0713 217.5,78.5C 218.462,85.4122 218.795,92.4122 218.5,99.5C 201.103,107.409 184.103,116.075 167.5,125.5C 158.626,128.935 149.96,132.935 141.5,137.5C 140.167,130.833 140.167,124.167 141.5,117.5C 159.161,108 177.161,99.1671 195.5,91C 196.833,89.6667 196.833,88.3333 195.5,87C 180.094,78.964 164.428,71.464 148.5,64.5C 146.076,62.7585 143.41,61.4252 140.5,60.5C 140.5,53.8333 140.5,47.1667 140.5,40.5 Z"/></g>
<g><path style="opacity:1" fill="#649339" d="M 140.5,40.5 C 141.251,39.4265 142.251,39.2599 143.5,40C 148.223,42.0217 152.557,44.5217 156.5,47.5C 151.167,45.1667 145.833,42.8333 140.5,40.5 Z"/></g>
<g><path style="opacity:1" fill="#edeeed" d="M -0.5,44.5 C 4.5,44.5 9.5,44.5 14.5,44.5C 14.5,49.5 14.5,54.5 14.5,59.5C 9.5,59.5 4.5,59.5 -0.5,59.5C -0.5,54.5 -0.5,49.5 -0.5,44.5 Z"/></g>
<g><path style="opacity:1" fill="#fefffe" d="M 14.5,44.5 C 19.5,44.5 24.5,44.5 29.5,44.5C 29.5,49.5 29.5,54.5 29.5,59.5C 24.5,59.5 19.5,59.5 14.5,59.5C 14.5,54.5 14.5,49.5 14.5,44.5 Z"/></g>
<g><path style="opacity:1" fill="#edeeed" d="M 29.5,44.5 C 34.5,44.5 39.5,44.5 44.5,44.5C 44.5,49.5 44.5,54.5 44.5,59.5C 39.5,59.5 34.5,59.5 29.5,59.5C 29.5,54.5 29.5,49.5 29.5,44.5 Z"/></g>
<g><path style="opacity:1" fill="#fefffe" d="M 44.5,44.5 C 49.5,44.5 54.5,44.5 59.5,44.5C 59.5,49.5 59.5,54.5 59.5,59.5C 54.5,59.5 49.5,59.5 44.5,59.5C 44.5,54.5 44.5,49.5 44.5,44.5 Z"/></g>
<g><path style="opacity:1" fill="#edeeed" d="M 59.5,44.5 C 64.5,44.5 69.5,44.5 74.5,44.5C 74.5,49.5 74.5,54.5 74.5,59.5C 69.5,59.5 64.5,59.5 59.5,59.5C 59.5,54.5 59.5,49.5 59.5,44.5 Z"/></g>
<g><path style="opacity:1" fill="#f5f5f4" d="M 89.5,-0.5 C 139.5,-0.5 189.5,-0.5 239.5,-0.5C 239.06,3.17851 239.727,6.51184 241.5,9.5C 200.479,8.5184 159.645,8.18507 119,8.5C 116.467,8.94965 114.3,9.94965 112.5,11.5C 111.883,11.3893 111.383,11.056 111,10.5C 109.896,11.3943 108.73,12.3943 107.5,13.5C 103.833,15.1667 101.167,17.8333 99.5,21.5C 98.3263,22.5137 97.6596,23.847 97.5,25.5C 96.7321,26.2625 96.2321,27.2625 96,28.5C 95.5,69.1653 95.3333,109.832 95.5,150.5C 94.5058,140.347 94.1724,130.014 94.5,119.5C 92.8333,119.5 91.1667,119.5 89.5,119.5C 89.5,124.5 89.5,129.5 89.5,134.5C 84.5,134.5 79.5,134.5 74.5,134.5C 74.5,129.5 74.5,124.5 74.5,119.5C 74.5,114.5 74.5,109.5 74.5,104.5C 74.5,99.5 74.5,94.5 74.5,89.5C 74.5,84.5 74.5,79.5 74.5,74.5C 74.5,69.5 74.5,64.5 74.5,59.5C 74.5,54.5 74.5,49.5 74.5,44.5C 74.5,39.5 74.5,34.5 74.5,29.5C 74.5,24.5 74.5,19.5 74.5,14.5C 79.5,14.5 84.5,14.5 89.5,14.5C 89.5,9.5 89.5,4.5 89.5,-0.5 Z"/></g>
<g><path style="opacity:1" fill="#6a9740" d="M 157.5,48.5 C 163.027,49.9276 168.36,51.9276 173.5,54.5C 178.481,57.1052 182.814,59.7719 186.5,62.5C 176.617,58.2099 166.951,53.5432 157.5,48.5 Z"/></g>
<g><path style="opacity:1" fill="#fefffe" d="M -0.5,59.5 C 4.5,59.5 9.5,59.5 14.5,59.5C 14.5,64.5 14.5,69.5 14.5,74.5C 9.5,74.5 4.5,74.5 -0.5,74.5C -0.5,69.5 -0.5,64.5 -0.5,59.5 Z"/></g>
<g><path style="opacity:1" fill="#edeeed" d="M 14.5,59.5 C 19.5,59.5 24.5,59.5 29.5,59.5C 29.5,64.5 29.5,69.5 29.5,74.5C 24.5,74.5 19.5,74.5 14.5,74.5C 14.5,69.5 14.5,64.5 14.5,59.5 Z"/></g>
<g><path style="opacity:1" fill="#fefffe" d="M 29.5,59.5 C 34.5,59.5 39.5,59.5 44.5,59.5C 44.5,64.5 44.5,69.5 44.5,74.5C 39.5,74.5 34.5,74.5 29.5,74.5C 29.5,69.5 29.5,64.5 29.5,59.5 Z"/></g>
<g><path style="opacity:1" fill="#edeeed" d="M 44.5,59.5 C 49.5,59.5 54.5,59.5 59.5,59.5C 59.5,64.5 59.5,69.5 59.5,74.5C 54.5,74.5 49.5,74.5 44.5,74.5C 44.5,69.5 44.5,64.5 44.5,59.5 Z"/></g>
<g><path style="opacity:1" fill="#fefffe" d="M 59.5,59.5 C 64.5,59.5 69.5,59.5 74.5,59.5C 74.5,64.5 74.5,69.5 74.5,74.5C 69.5,74.5 64.5,74.5 59.5,74.5C 59.5,69.5 59.5,64.5 59.5,59.5 Z"/></g>
<g><path style="opacity:1" fill="#f6f6f6" d="M 329.5,89.5 C 334.5,89.5 339.5,89.5 344.5,89.5C 344.5,94.5 344.5,99.5 344.5,104.5C 339.5,104.5 334.5,104.5 329.5,104.5C 329.5,109.5 329.5,114.5 329.5,119.5C 334.5,119.5 339.5,119.5 344.5,119.5C 344.5,124.5 344.5,129.5 344.5,134.5C 339.5,134.5 334.5,134.5 329.5,134.5C 329.5,139.5 329.5,144.5 329.5,149.5C 324.5,149.5 319.5,149.5 314.5,149.5C 314.5,144.5 314.5,139.5 314.5,134.5C 309.5,134.5 304.5,134.5 299.5,134.5C 299.5,129.5 299.5,124.5 299.5,119.5C 294.5,119.5 289.5,119.5 284.5,119.5C 284.5,114.5 284.5,109.5 284.5,104.5C 279.5,104.5 274.5,104.5 269.5,104.5C 269.5,99.5 269.5,94.5 269.5,89.5C 266.5,89.5 263.5,89.5 260.5,89.5C 260.5,70.5 260.5,51.5 260.5,32.5C 261.404,31.791 261.737,30.791 261.5,29.5C 264.167,29.5 266.833,29.5 269.5,29.5C 269.5,34.5 269.5,39.5 269.5,44.5C 274.5,44.5 279.5,44.5 284.5,44.5C 284.5,49.5 284.5,54.5 284.5,59.5C 289.5,59.5 294.5,59.5 299.5,59.5C 299.5,64.5 299.5,69.5 299.5,74.5C 304.5,74.5 309.5,74.5 314.5,74.5C 314.5,79.5 314.5,84.5 314.5,89.5C 319.5,89.5 324.5,89.5 329.5,89.5 Z"/></g>
<g><path style="opacity:1" fill="#61a221" d="M 148.5,64.5 C 164.428,71.464 180.094,78.964 195.5,87C 196.833,88.3333 196.833,89.6667 195.5,91C 177.161,99.1671 159.161,108 141.5,117.5C 140.167,124.167 140.167,130.833 141.5,137.5C 149.96,132.935 158.626,128.935 167.5,125.5C 165.691,126.481 164.357,127.981 163.5,130C 163.5,131.333 163.5,132.667 163.5,134C 165.952,136.129 168.286,135.963 170.5,133.5C 171.594,134.868 171.26,136.035 169.5,137C 170.978,139.039 172.978,139.872 175.5,139.5C 175.35,136.074 176.516,135.741 179,138.5C 179.667,139.5 179.667,140.5 179,141.5C 175.471,142.099 173.138,144.099 172,147.5C 168.348,143.685 165.015,139.018 162,133.5C 161.833,134.167 161.667,134.833 161.5,135.5C 162.634,137.469 163.967,139.302 165.5,141C 164.576,142.15 164.576,143.15 165.5,144C 163.436,144.653 161.769,145.82 160.5,147.5C 159.459,145.009 158.626,145.009 158,147.5C 156.799,145.274 155.465,142.941 154,140.5C 152.667,141.833 151.333,141.833 150,140.5C 148.513,141.253 148.346,142.086 149.5,143C 147.939,143.941 146.605,145.108 145.5,146.5C 145.833,147.5 146.5,148.167 147.5,148.5C 150.343,147.079 151.676,145.079 151.5,142.5C 152.425,143.641 153.259,143.641 154,142.5C 154.507,143.996 154.007,145.163 152.5,146C 153.253,147.487 154.086,147.654 155,146.5C 155.346,148.848 156.513,150.681 158.5,152C 157.24,153.113 156.073,153.28 155,152.5C 153.312,153.325 153.145,154.325 154.5,155.5C 152.803,156.364 151.637,157.697 151,159.5C 148.989,158.283 146.989,158.616 145,160.5C 144.667,159.833 144.333,159.167 144,158.5C 143.577,159.956 142.744,160.456 141.5,160C 142.376,158.415 143.709,157.415 145.5,157C 144.892,156.13 144.059,155.63 143,155.5C 140.898,156.038 140.065,157.038 140.5,158.5C 140.167,158 139.833,157.5 139.5,157C 140.377,155.133 141.877,153.966 144,153.5C 144.667,152.833 144.667,152.167 144,151.5C 141.667,152.167 139.333,152.833 137,153.5C 135.04,151.101 132.874,150.935 130.5,153C 131.865,154.682 133.365,154.849 135,153.5C 135.481,156.612 136.148,159.945 137,163.5C 137.415,161.709 138.415,160.376 140,159.5C 142.089,160.991 144.089,162.658 146,164.5C 147.263,162.203 149.097,161.37 151.5,162C 149.185,163.109 147.685,164.943 147,167.5C 146.692,166.692 146.192,166.025 145.5,165.5C 144.186,166.313 143.019,167.313 142,168.5C 139.656,168.144 137.323,167.811 135,167.5C 133.274,168.648 133.441,169.815 135.5,171C 129.652,171.173 123.985,171.673 118.5,172.5C 117.292,171.766 115.959,171.433 114.5,171.5C 111.08,171.634 108.08,170.301 105.5,167.5C 104.5,165.833 103.167,164.5 101.5,163.5C 99.7497,162.341 98.7497,160.674 98.5,158.5C 98.5,158.167 98.5,157.833 98.5,157.5C 100.045,158.23 100.878,159.563 101,161.5C 101.667,160.167 102.333,160.167 103,161.5C 105.734,160.638 105.901,159.805 103.5,159C 104.833,158.333 104.833,157.667 103.5,157C 105.225,156.135 106.892,155.469 108.5,155C 109.061,153.434 108.394,152.101 106.5,151C 107.308,150.692 107.975,150.192 108.5,149.5C 107.263,148.719 106.263,147.719 105.5,146.5C 106.956,146.678 108.289,145.844 109.5,144C 108.075,142.638 107.242,141.138 107,139.5C 106.086,140.654 105.253,140.487 104.5,139C 106.167,138.667 107.833,138.333 109.5,138C 106.616,136.963 105.95,135.129 107.5,132.5C 107.205,133.826 107.705,135.159 109,136.5C 110.487,135.747 110.654,134.914 109.5,134C 110.938,133.781 112.271,133.281 113.5,132.5C 113.306,130.93 113.306,129.43 113.5,128C 115.23,126.148 116.396,126.314 117,128.5C 118.137,127.636 119.47,126.636 121,125.5C 120.189,127.791 121.023,129.625 123.5,131C 130.351,134.479 131.017,133.479 125.5,128C 126.784,126.703 126.617,125.536 125,124.5C 123.32,125.603 121.82,125.27 120.5,123.5C 119.11,125.203 117.61,125.87 116,125.5C 113.608,122.061 111.108,122.228 108.5,126C 109.34,127.666 108.84,127.833 107,126.5C 106.833,127 106.667,127.5 106.5,128C 108.512,129.152 108.678,130.318 107,131.5C 105.199,129.891 104.033,128.224 103.5,126.5C 104.529,126.704 105.529,126.204 106.5,125C 104.459,123.758 103.293,121.925 103,119.5C 102.396,121.686 101.23,121.852 99.5,120C 100.672,119.581 101.672,118.915 102.5,118C 100.2,116.887 99.8671,115.387 101.5,113.5C 99.0162,111.464 98.0162,108.798 98.5,105.5C 99.675,105.719 100.675,105.386 101.5,104.5C 100.509,103.335 99.5089,102.168 98.5,101C 99.2893,100.454 100.289,99.7869 101.5,99C 100.359,98.2588 100.359,97.4255 101.5,96.5C 100.91,95.2011 99.91,94.3678 98.5,94C 99.8333,93.3333 99.8333,92.6667 98.5,92C 100.135,91.4604 101.468,91.9604 102.5,93.5C 103.047,90.8489 101.714,89.3489 98.5,89C 98.9574,88.586 99.2907,88.086 99.5,87.5C 96.582,84.7693 96.9153,82.6026 100.5,81C 98.842,80.2747 98.342,79.108 99,77.5C 99.3076,78.3081 99.8076,78.9747 100.5,79.5C 101.333,78.5 102.167,77.5 103,76.5C 106.417,78.0719 106.251,79.2386 102.5,80C 103.333,80.8333 104.167,81.6667 105,82.5C 107.122,81.7801 107.622,80.6134 106.5,79C 107.167,78.6667 107.833,78.3333 108.5,78C 106.402,75.146 104.069,72.4794 101.5,70C 102.749,68.1759 103.915,68.3426 105,70.5C 106.987,69.782 108.821,68.782 110.5,67.5C 111.635,68.1027 112.635,68.4361 113.5,68.5C 111.123,70.2521 110.956,72.2521 113,74.5C 113.333,73.8333 113.667,73.1667 114,72.5C 114.667,73.8333 115.333,73.8333 116,72.5C 116.333,74.0468 115.833,75.3801 114.5,76.5C 116.748,77.324 116.914,78.324 115,79.5C 112.597,76.6345 111.764,76.8012 112.5,80C 111.551,80.6172 110.718,80.4506 110,79.5C 109.308,80.0253 108.808,80.6919 108.5,81.5C 111.188,85.8551 110.855,89.1884 107.5,91.5C 108.732,93.1569 109.566,94.8236 110,96.5C 109.667,96.8333 109.333,97.1667 109,97.5C 103.092,94.2436 101.592,95.577 104.5,101.5C 105.425,102.641 106.259,102.641 107,101.5C 107.419,102.672 108.085,103.672 109,104.5C 111.28,100.588 113.447,100.588 115.5,104.5C 116.086,104.291 116.586,103.957 117,103.5C 118,106.5 119,109.5 120,112.5C 120.497,109.854 120.664,107.187 120.5,104.5C 122.65,104.095 124.65,103.595 126.5,103C 125.383,104.892 123.716,105.725 121.5,105.5C 122.053,107.939 122.053,110.273 121.5,112.5C 123.991,113.541 123.991,114.374 121.5,115C 123.056,116.599 124.723,118.099 126.5,119.5C 126.94,118.302 127.273,117.135 127.5,116C 128.996,115.493 130.163,115.993 131,117.5C 131.684,116.216 131.517,115.049 130.5,114C 132.266,112.302 134.266,110.969 136.5,110C 135.216,109.316 134.049,109.483 133,110.5C 132.333,109.5 132.333,108.5 133,107.5C 133.667,108.833 134.333,108.833 135,107.5C 135.667,106.5 135.667,105.5 135,104.5C 134.346,105.696 133.846,105.696 133.5,104.5C 136.028,103.184 136.028,102.017 133.5,101C 134.759,100.077 136.092,99.2432 137.5,98.5C 137.023,97.5224 136.357,96.6891 135.5,96C 136.308,95.6924 136.975,95.1924 137.5,94.5C 136.895,92.5188 135.895,92.1854 134.5,93.5C 131.539,92.8169 131.205,91.9836 133.5,91C 132.216,90.3162 131.049,90.4829 130,91.5C 129.333,90.5 129.333,89.5 130,88.5C 130.741,89.6405 131.575,89.6405 132.5,88.5C 133.799,89.09 134.632,90.09 135,91.5C 135.305,89.4432 135.305,87.4432 135,85.5C 137.066,88.1319 139.566,88.7986 142.5,87.5C 140.155,85.5953 137.488,84.4286 134.5,84C 134.36,82.7361 134.36,81.5695 134.5,80.5C 135.386,81.325 135.719,82.325 135.5,83.5C 136.873,83.6567 138.207,83.49 139.5,83C 141.26,82.0347 141.594,80.868 140.5,79.5C 139.833,80.1667 139.167,80.8333 138.5,81.5C 137.096,79.13 135.43,77.7966 133.5,77.5C 133.667,76.8333 133.833,76.1667 134,75.5C 135.268,75.6158 136.602,75.9491 138,76.5C 139.295,75.1588 139.795,73.8255 139.5,72.5C 140.957,74.275 142.124,76.275 143,78.5C 143.333,77.8333 143.667,77.1667 144,76.5C 149.196,81.6296 150.029,81.1296 146.5,75C 145.167,75 143.833,75 142.5,75C 143.047,74.0754 143.713,73.2421 144.5,72.5C 147.769,73.7265 148.936,72.7265 148,69.5C 149,70.1667 150,70.8333 151,71.5C 150.406,69.5177 149.24,67.6844 147.5,66C 148.056,65.6174 148.389,65.1174 148.5,64.5 Z"/></g>
<g><path style="opacity:1" fill="#68963e" d="M 189.5,64.5 C 196.481,66.1575 202.815,69.1575 208.5,73.5C 201.797,71.0556 195.463,68.0556 189.5,64.5 Z"/></g>
<g><path style="opacity:1" fill="#edeeed" d="M -0.5,74.5 C 4.5,74.5 9.5,74.5 14.5,74.5C 14.5,79.5 14.5,84.5 14.5,89.5C 9.5,89.5 4.5,89.5 -0.5,89.5C -0.5,84.5 -0.5,79.5 -0.5,74.5 Z"/></g>
<g><path style="opacity:1" fill="#fefffe" d="M 14.5,74.5 C 19.5,74.5 24.5,74.5 29.5,74.5C 29.5,79.5 29.5,84.5 29.5,89.5C 24.5,89.5 19.5,89.5 14.5,89.5C 14.5,84.5 14.5,79.5 14.5,74.5 Z"/></g>
<g><path style="opacity:1" fill="#edeeed" d="M 29.5,74.5 C 34.5,74.5 39.5,74.5 44.5,74.5C 44.5,79.5 44.5,84.5 44.5,89.5C 39.5,89.5 34.5,89.5 29.5,89.5C 29.5,84.5 29.5,79.5 29.5,74.5 Z"/></g>
<g><path style="opacity:1" fill="#fefffe" d="M 44.5,74.5 C 49.5,74.5 54.5,74.5 59.5,74.5C 59.5,79.5 59.5,84.5 59.5,89.5C 54.5,89.5 49.5,89.5 44.5,89.5C 44.5,84.5 44.5,79.5 44.5,74.5 Z"/></g>
<g><path style="opacity:1" fill="#edeeed" d="M 59.5,74.5 C 64.5,74.5 69.5,74.5 74.5,74.5C 74.5,79.5 74.5,84.5 74.5,89.5C 69.5,89.5 64.5,89.5 59.5,89.5C 59.5,84.5 59.5,79.5 59.5,74.5 Z"/></g>
<g><path style="opacity:1" fill="#d6f0b4" d="M 217.5,78.5 C 218.821,81.5982 219.488,85.0982 219.5,89C 219.499,92.6833 219.165,96.1833 218.5,99.5C 218.795,92.4122 218.462,85.4122 217.5,78.5 Z"/></g>
<g><path style="opacity:1" fill="#fefffe" d="M -0.5,89.5 C 4.5,89.5 9.5,89.5 14.5,89.5C 14.5,94.5 14.5,99.5 14.5,104.5C 9.5,104.5 4.5,104.5 -0.5,104.5C -0.5,99.5 -0.5,94.5 -0.5,89.5 Z"/></g>
<g><path style="opacity:1" fill="#edeeed" d="M 14.5,89.5 C 19.5,89.5 24.5,89.5 29.5,89.5C 29.5,94.5 29.5,99.5 29.5,104.5C 24.5,104.5 19.5,104.5 14.5,104.5C 14.5,99.5 14.5,94.5 14.5,89.5 Z"/></g>
<g><path style="opacity:1" fill="#fefffe" d="M 29.5,89.5 C 34.5,89.5 39.5,89.5 44.5,89.5C 44.5,94.5 44.5,99.5 44.5,104.5C 39.5,104.5 34.5,104.5 29.5,104.5C 29.5,99.5 29.5,94.5 29.5,89.5 Z"/></g>
<g><path style="opacity:1" fill="#edeeed" d="M 44.5,89.5 C 49.5,89.5 54.5,89.5 59.5,89.5C 59.5,94.5 59.5,99.5 59.5,104.5C 54.5,104.5 49.5,104.5 44.5,104.5C 44.5,99.5 44.5,94.5 44.5,89.5 Z"/></g>
<g><path style="opacity:1" fill="#fefffe" d="M 59.5,89.5 C 64.5,89.5 69.5,89.5 74.5,89.5C 74.5,94.5 74.5,99.5 74.5,104.5C 69.5,104.5 64.5,104.5 59.5,104.5C 59.5,99.5 59.5,94.5 59.5,89.5 Z"/></g>
<g><path style="opacity:1" fill="#edeeed" d="M -0.5,104.5 C 4.5,104.5 9.5,104.5 14.5,104.5C 14.5,109.5 14.5,114.5 14.5,119.5C 9.5,119.5 4.5,119.5 -0.5,119.5C -0.5,114.5 -0.5,109.5 -0.5,104.5 Z"/></g>
<g><path style="opacity:1" fill="#fefffe" d="M 14.5,104.5 C 19.5,104.5 24.5,104.5 29.5,104.5C 29.5,109.5 29.5,114.5 29.5,119.5C 24.5,119.5 19.5,119.5 14.5,119.5C 14.5,114.5 14.5,109.5 14.5,104.5 Z"/></g>
<g><path style="opacity:1" fill="#edeeed" d="M 29.5,104.5 C 34.5,104.5 39.5,104.5 44.5,104.5C 44.5,109.5 44.5,114.5 44.5,119.5C 39.5,119.5 34.5,119.5 29.5,119.5C 29.5,114.5 29.5,109.5 29.5,104.5 Z"/></g>
<g><path style="opacity:1" fill="#fefffe" d="M 44.5,104.5 C 49.5,104.5 54.5,104.5 59.5,104.5C 59.5,109.5 59.5,114.5 59.5,119.5C 54.5,119.5 49.5,119.5 44.5,119.5C 44.5,114.5 44.5,109.5 44.5,104.5 Z"/></g>
<g><path style="opacity:1" fill="#edeeed" d="M 59.5,104.5 C 64.5,104.5 69.5,104.5 74.5,104.5C 74.5,109.5 74.5,114.5 74.5,119.5C 69.5,119.5 64.5,119.5 59.5,119.5C 59.5,114.5 59.5,109.5 59.5,104.5 Z"/></g>
<g><path style="opacity:1" fill="#62a424" d="M 224.5,105.5 C 227.125,106.441 227.125,107.607 224.5,109C 226.18,109.034 227.68,109.201 229,109.5C 229.456,108.256 228.956,107.423 227.5,107C 229.987,104.644 231.653,105.144 232.5,108.5C 230.578,109.96 229.911,111.627 230.5,113.5C 229.833,113.833 229.167,114.167 228.5,114.5C 227.152,112.539 225.819,112.372 224.5,114C 225.667,114.5 226.5,115.333 227,116.5C 229.608,115.066 232.108,114.233 234.5,114C 232.216,112.637 232.049,111.137 234,109.5C 238.376,112.697 238.542,116.197 234.5,120C 234.665,121.117 234.998,122.284 235.5,123.5C 239.504,124.014 243.504,123.514 247.5,122C 247.167,121.667 246.833,121.333 246.5,121C 248.792,118.976 249.459,119.31 248.5,122C 251.167,122.667 251.167,123.333 248.5,124C 251.167,125.667 251.167,127.333 248.5,129C 250.109,130.801 251.776,131.967 253.5,132.5C 250.747,132.414 248.413,133.08 246.5,134.5C 247.035,136.271 247.869,136.604 249,135.5C 249.309,136.766 249.809,137.933 250.5,139C 248.098,139.814 245.765,139.647 243.5,138.5C 243.277,137.033 242.944,135.533 242.5,134C 243.899,132.938 244.899,131.605 245.5,130C 244.506,127.082 245.006,126.916 247,129.5C 247.667,128.167 247.667,126.833 247,125.5C 245.57,125.694 244.07,125.694 242.5,125.5C 241.167,128.167 239.833,128.167 238.5,125.5C 237.828,126.985 238.494,128.151 240.5,129C 238.699,129.317 238.366,129.984 239.5,131C 238.5,133 237.5,133 236.5,131C 237.517,129.951 237.684,128.784 237,127.5C 236.261,129.221 235.427,130.887 234.5,132.5C 233.304,132.154 233.304,131.654 234.5,131C 233.5,130.333 232.5,130.333 231.5,131C 231.295,132.676 232.128,134.176 234,135.5C 234.333,134.833 234.667,134.167 235,133.5C 237.003,135.725 236.503,137.392 233.5,138.5C 235.651,140.258 237.817,141.924 240,143.5C 240.626,141.009 241.459,141.009 242.5,143.5C 243.716,142.998 244.883,142.665 246,142.5C 246.242,144.138 247.075,145.638 248.5,147C 250.749,147.863 252.582,147.363 254,145.5C 255.049,147.107 256.549,147.773 258.5,147.5C 258.632,150.57 258.299,153.57 257.5,156.5C 257.611,157.117 257.944,157.617 258.5,158C 256.779,159.944 255.446,162.11 254.5,164.5C 246.2,172.418 236.2,175.418 224.5,173.5C 199.5,173.5 174.5,173.5 149.5,173.5C 139.085,173.808 128.751,173.475 118.5,172.5C 123.985,171.673 129.652,171.173 135.5,171C 133.441,169.815 133.274,168.648 135,167.5C 137.323,167.811 139.656,168.144 142,168.5C 143.019,167.313 144.186,166.313 145.5,165.5C 146.192,166.025 146.692,166.692 147,167.5C 147.685,164.943 149.185,163.109 151.5,162C 149.097,161.37 147.263,162.203 146,164.5C 144.089,162.658 142.089,160.991 140,159.5C 138.415,160.376 137.415,161.709 137,163.5C 136.148,159.945 135.481,156.612 135,153.5C 133.365,154.849 131.865,154.682 130.5,153C 132.874,150.935 135.04,151.101 137,153.5C 139.333,152.833 141.667,152.167 144,151.5C 144.667,152.167 144.667,152.833 144,153.5C 141.877,153.966 140.377,155.133 139.5,157C 139.833,157.5 140.167,158 140.5,158.5C 140.065,157.038 140.898,156.038 143,155.5C 144.059,155.63 144.892,156.13 145.5,157C 143.709,157.415 142.376,158.415 141.5,160C 142.744,160.456 143.577,159.956 144,158.5C 144.333,159.167 144.667,159.833 145,160.5C 146.989,158.616 148.989,158.283 151,159.5C 151.637,157.697 152.803,156.364 154.5,155.5C 153.145,154.325 153.312,153.325 155,152.5C 156.073,153.28 157.24,153.113 158.5,152C 156.513,150.681 155.346,148.848 155,146.5C 154.086,147.654 153.253,147.487 152.5,146C 154.007,145.163 154.507,143.996 154,142.5C 153.259,143.641 152.425,143.641 151.5,142.5C 151.676,145.079 150.343,147.079 147.5,148.5C 146.5,148.167 145.833,147.5 145.5,146.5C 146.605,145.108 147.939,143.941 149.5,143C 148.346,142.086 148.513,141.253 150,140.5C 151.333,141.833 152.667,141.833 154,140.5C 155.465,142.941 156.799,145.274 158,147.5C 158.626,145.009 159.459,145.009 160.5,147.5C 161.769,145.82 163.436,144.653 165.5,144C 164.576,143.15 164.576,142.15 165.5,141C 163.967,139.302 162.634,137.469 161.5,135.5C 161.667,134.833 161.833,134.167 162,133.5C 165.015,139.018 168.348,143.685 172,147.5C 173.138,144.099 175.471,142.099 179,141.5C 179.667,140.5 179.667,139.5 179,138.5C 176.516,135.741 175.35,136.074 175.5,139.5C 172.978,139.872 170.978,139.039 169.5,137C 171.26,136.035 171.594,134.868 170.5,133.5C 168.286,135.963 165.952,136.129 163.5,134C 163.5,132.667 163.5,131.333 163.5,130C 164.357,127.981 165.691,126.481 167.5,125.5C 172.51,123.579 177.343,121.245 182,118.5C 183.309,120.891 184.309,120.891 185,118.5C 186.962,120.869 189.128,122.202 191.5,122.5C 190.624,123.251 189.624,123.751 188.5,124C 189.991,126.621 190.658,129.455 190.5,132.5C 189.448,132.351 188.448,132.517 187.5,133C 188.766,133.309 189.933,133.809 191,134.5C 192.294,133.146 192.46,131.812 191.5,130.5C 192.651,129.269 193.817,129.269 195,130.5C 195.419,129.328 196.085,128.328 197,127.5C 198.819,129.536 200.653,129.703 202.5,128C 201.24,126.887 200.073,126.72 199,127.5C 199.148,126.175 198.982,125.008 198.5,124C 199.449,123.383 200.282,123.549 201,124.5C 202.487,123.747 202.654,122.914 201.5,122C 203.623,121.185 205.623,120.185 207.5,119C 206.965,116.891 205.965,116.391 204.5,117.5C 203.146,114.933 203.48,112.599 205.5,110.5C 204.975,109.808 204.308,109.308 203.5,109C 205.965,106.263 208.965,104.93 212.5,105C 210.536,107.312 210.203,109.812 211.5,112.5C 213.539,111.723 214.205,110.557 213.5,109C 214.253,107.513 215.086,107.346 216,108.5C 218.471,106.142 219.971,106.808 220.5,110.5C 216.828,111.045 217.162,111.378 221.5,111.5C 221.461,108.911 222.461,106.911 224.5,105.5 Z"/></g>
<g><path style="opacity:1" fill="#fefffe" d="M -0.5,119.5 C 4.5,119.5 9.5,119.5 14.5,119.5C 14.5,124.5 14.5,129.5 14.5,134.5C 9.5,134.5 4.5,134.5 -0.5,134.5C -0.5,129.5 -0.5,124.5 -0.5,119.5 Z"/></g>
<g><path style="opacity:1" fill="#edeeed" d="M 14.5,119.5 C 19.5,119.5 24.5,119.5 29.5,119.5C 29.5,124.5 29.5,129.5 29.5,134.5C 24.5,134.5 19.5,134.5 14.5,134.5C 14.5,129.5 14.5,124.5 14.5,119.5 Z"/></g>
<g><path style="opacity:1" fill="#fefffe" d="M 29.5,119.5 C 34.5,119.5 39.5,119.5 44.5,119.5C 44.5,124.5 44.5,129.5 44.5,134.5C 39.5,134.5 34.5,134.5 29.5,134.5C 29.5,129.5 29.5,124.5 29.5,119.5 Z"/></g>
<g><path style="opacity:1" fill="#edeeed" d="M 44.5,119.5 C 49.5,119.5 54.5,119.5 59.5,119.5C 59.5,124.5 59.5,129.5 59.5,134.5C 54.5,134.5 49.5,134.5 44.5,134.5C 44.5,129.5 44.5,124.5 44.5,119.5 Z"/></g>
<g><path style="opacity:1" fill="#fefffe" d="M 59.5,119.5 C 64.5,119.5 69.5,119.5 74.5,119.5C 74.5,124.5 74.5,129.5 74.5,134.5C 69.5,134.5 64.5,134.5 59.5,134.5C 59.5,129.5 59.5,124.5 59.5,119.5 Z"/></g>
<g><path style="opacity:1" fill="#f5f5f5" d="M 260.5,89.5 C 263.5,89.5 266.5,89.5 269.5,89.5C 269.5,94.5 269.5,99.5 269.5,104.5C 274.5,104.5 279.5,104.5 284.5,104.5C 284.5,109.5 284.5,114.5 284.5,119.5C 289.5,119.5 294.5,119.5 299.5,119.5C 299.5,124.5 299.5,129.5 299.5,134.5C 304.5,134.5 309.5,134.5 314.5,134.5C 314.5,139.5 314.5,144.5 314.5,149.5C 319.5,149.5 324.5,149.5 329.5,149.5C 334.5,149.5 339.5,149.5 344.5,149.5C 344.5,154.5 344.5,159.5 344.5,164.5C 339.5,164.5 334.5,164.5 329.5,164.5C 329.5,169.5 329.5,174.5 329.5,179.5C 334.5,179.5 339.5,179.5 344.5,179.5C 344.5,184.5 344.5,189.5 344.5,194.5C 339.5,194.5 334.5,194.5 329.5,194.5C 329.5,199.5 329.5,204.5 329.5,209.5C 334.5,209.5 339.5,209.5 344.5,209.5C 344.5,214.5 344.5,219.5 344.5,224.5C 339.5,224.5 334.5,224.5 329.5,224.5C 324.5,224.5 319.5,224.5 314.5,224.5C 314.5,219.5 314.5,214.5 314.5,209.5C 309.5,209.5 304.5,209.5 299.5,209.5C 299.5,204.5 299.5,199.5 299.5,194.5C 294.5,194.5 289.5,194.5 284.5,194.5C 284.5,189.5 284.5,184.5 284.5,179.5C 279.5,179.5 274.5,179.5 269.5,179.5C 269.5,174.5 269.5,169.5 269.5,164.5C 264.5,164.5 259.5,164.5 254.5,164.5C 255.446,162.11 256.779,159.944 258.5,158C 257.944,157.617 257.611,157.117 257.5,156.5C 259.13,154.974 259.963,152.974 260,150.5C 260.5,130.169 260.667,109.836 260.5,89.5 Z"/></g>
<g><path style="opacity:1" fill="#edeeed" d="M -0.5,134.5 C 4.5,134.5 9.5,134.5 14.5,134.5C 14.5,139.5 14.5,144.5 14.5,149.5C 9.5,149.5 4.5,149.5 -0.5,149.5C -0.5,144.5 -0.5,139.5 -0.5,134.5 Z"/></g>
<g><path style="opacity:1" fill="#fefffe" d="M 14.5,134.5 C 19.5,134.5 24.5,134.5 29.5,134.5C 29.5,139.5 29.5,144.5 29.5,149.5C 24.5,149.5 19.5,149.5 14.5,149.5C 14.5,144.5 14.5,139.5 14.5,134.5 Z"/></g>
<g><path style="opacity:1" fill="#edeeed" d="M 29.5,134.5 C 34.5,134.5 39.5,134.5 44.5,134.5C 44.5,139.5 44.5,144.5 44.5,149.5C 39.5,149.5 34.5,149.5 29.5,149.5C 29.5,144.5 29.5,139.5 29.5,134.5 Z"/></g>
<g><path style="opacity:1" fill="#fefffe" d="M 44.5,134.5 C 49.5,134.5 54.5,134.5 59.5,134.5C 59.5,139.5 59.5,144.5 59.5,149.5C 54.5,149.5 49.5,149.5 44.5,149.5C 44.5,144.5 44.5,139.5 44.5,134.5 Z"/></g>
<g><path style="opacity:1" fill="#edeeed" d="M 59.5,134.5 C 64.5,134.5 69.5,134.5 74.5,134.5C 74.5,139.5 74.5,144.5 74.5,149.5C 69.5,149.5 64.5,149.5 59.5,149.5C 59.5,144.5 59.5,139.5 59.5,134.5 Z"/></g>
<g><path style="opacity:1" fill="#fefffe" d="M -0.5,149.5 C 4.5,149.5 9.5,149.5 14.5,149.5C 14.5,154.5 14.5,159.5 14.5,164.5C 9.5,164.5 4.5,164.5 -0.5,164.5C -0.5,159.5 -0.5,154.5 -0.5,149.5 Z"/></g>
<g><path style="opacity:1" fill="#edeeed" d="M 14.5,149.5 C 19.5,149.5 24.5,149.5 29.5,149.5C 29.5,154.5 29.5,159.5 29.5,164.5C 24.5,164.5 19.5,164.5 14.5,164.5C 14.5,159.5 14.5,154.5 14.5,149.5 Z"/></g>
<g><path style="opacity:1" fill="#fefffe" d="M 29.5,149.5 C 34.5,149.5 39.5,149.5 44.5,149.5C 44.5,154.5 44.5,159.5 44.5,164.5C 39.5,164.5 34.5,164.5 29.5,164.5C 29.5,159.5 29.5,154.5 29.5,149.5 Z"/></g>
<g><path style="opacity:1" fill="#edeeed" d="M 44.5,149.5 C 49.5,149.5 54.5,149.5 59.5,149.5C 59.5,154.5 59.5,159.5 59.5,164.5C 54.5,164.5 49.5,164.5 44.5,164.5C 44.5,159.5 44.5,154.5 44.5,149.5 Z"/></g>
<g><path style="opacity:1" fill="#fefffe" d="M 59.5,149.5 C 64.5,149.5 69.5,149.5 74.5,149.5C 74.5,154.5 74.5,159.5 74.5,164.5C 69.5,164.5 64.5,164.5 59.5,164.5C 59.5,159.5 59.5,154.5 59.5,149.5 Z"/></g>
<g><path style="opacity:1" fill="#edeeed" d="M -0.5,164.5 C 4.5,164.5 9.5,164.5 14.5,164.5C 14.5,169.5 14.5,174.5 14.5,179.5C 9.5,179.5 4.5,179.5 -0.5,179.5C -0.5,174.5 -0.5,169.5 -0.5,164.5 Z"/></g>
<g><path style="opacity:1" fill="#fefffe" d="M 14.5,164.5 C 19.5,164.5 24.5,164.5 29.5,164.5C 29.5,169.5 29.5,174.5 29.5,179.5C 24.5,179.5 19.5,179.5 14.5,179.5C 14.5,174.5 14.5,169.5 14.5,164.5 Z"/></g>
<g><path style="opacity:1" fill="#edeeed" d="M 29.5,164.5 C 34.5,164.5 39.5,164.5 44.5,164.5C 44.5,169.5 44.5,174.5 44.5,179.5C 39.5,179.5 34.5,179.5 29.5,179.5C 29.5,174.5 29.5,169.5 29.5,164.5 Z"/></g>
<g><path style="opacity:1" fill="#fefffe" d="M 44.5,164.5 C 49.5,164.5 54.5,164.5 59.5,164.5C 59.5,169.5 59.5,174.5 59.5,179.5C 54.5,179.5 49.5,179.5 44.5,179.5C 44.5,174.5 44.5,169.5 44.5,164.5 Z"/></g>
<g><path style="opacity:1" fill="#edeeed" d="M 59.5,164.5 C 64.5,164.5 69.5,164.5 74.5,164.5C 74.5,169.5 74.5,174.5 74.5,179.5C 69.5,179.5 64.5,179.5 59.5,179.5C 59.5,174.5 59.5,169.5 59.5,164.5 Z"/></g>
<g><path style="opacity:1" fill="#adcd8d" d="M 101.5,163.5 C 103.167,164.5 104.5,165.833 105.5,167.5C 105.565,167.938 105.399,168.272 105,168.5C 103.5,167 102,165.5 100.5,164C 100.728,163.601 101.062,163.435 101.5,163.5 Z"/></g>
<g><path style="opacity:1" fill="#aacc87" d="M 114.5,171.5 C 115.959,171.433 117.292,171.766 118.5,172.5C 118.083,173.124 117.416,173.457 116.5,173.5C 115.287,173.253 114.62,172.586 114.5,171.5 Z"/></g>
<g><path style="opacity:1" fill="#f6f6f6" d="M 95.5,150.5 C 95.7329,153.542 96.7329,156.208 98.5,158.5C 98.7497,160.674 99.7497,162.341 101.5,163.5C 101.062,163.435 100.728,163.601 100.5,164C 102,165.5 103.5,167 105,168.5C 105.399,168.272 105.565,167.938 105.5,167.5C 108.08,170.301 111.08,171.634 114.5,171.5C 114.62,172.586 115.287,173.253 116.5,173.5C 117.416,173.457 118.083,173.124 118.5,172.5C 128.751,173.475 139.085,173.808 149.5,173.5C 149.5,175.5 149.5,177.5 149.5,179.5C 154.5,179.5 159.5,179.5 164.5,179.5C 164.5,184.5 164.5,189.5 164.5,194.5C 169.5,194.5 174.5,194.5 179.5,194.5C 179.5,199.5 179.5,204.5 179.5,209.5C 184.5,209.5 189.5,209.5 194.5,209.5C 194.5,210.5 194.5,211.5 194.5,212.5C 190.297,212.076 186.297,212.576 182.5,214C 183.04,225.47 183.707,236.97 184.5,248.5C 184.756,250.792 184.423,252.959 183.5,255C 187.587,255.762 191.587,255.596 195.5,254.5C 192.299,256.26 188.633,257.094 184.5,257C 187.817,257.498 191.15,257.665 194.5,257.5C 194.5,261.5 194.5,265.5 194.5,269.5C 189.5,269.5 184.5,269.5 179.5,269.5C 179.5,274.5 179.5,279.5 179.5,284.5C 174.5,284.5 169.5,284.5 164.5,284.5C 164.5,279.5 164.5,274.5 164.5,269.5C 164.181,264.637 164.514,259.97 165.5,255.5C 169.042,255.813 172.375,255.479 175.5,254.5C 176.83,248.369 177.497,241.869 177.5,235C 177.333,228.5 177.167,222 177,215.5C 176.722,214.584 176.222,213.918 175.5,213.5C 172.167,213.5 168.833,213.5 165.5,213.5C 164.518,216.962 164.185,220.629 164.5,224.5C 159.5,224.5 154.5,224.5 149.5,224.5C 149.666,229.511 149.499,234.511 149,239.5C 148.727,237.899 148.227,236.399 147.5,235C 148.457,226.574 149.124,218.074 149.5,209.5C 144.5,209.5 139.5,209.5 134.5,209.5C 134.5,204.5 134.5,199.5 134.5,194.5C 132.5,194.5 130.5,194.5 128.5,194.5C 125.167,193.167 121.833,193.167 118.5,194.5C 117.833,205.833 117.167,217.167 116.5,228.5C 116.5,217.167 116.5,205.833 116.5,194.5C 112.5,194.5 108.5,194.5 104.5,194.5C 99.5,194.5 94.5,194.5 89.5,194.5C 89.5,199.5 89.5,204.5 89.5,209.5C 84.5,209.5 79.5,209.5 74.5,209.5C 74.5,204.5 74.5,199.5 74.5,194.5C 74.5,189.5 74.5,184.5 74.5,179.5C 74.5,174.5 74.5,169.5 74.5,164.5C 74.5,159.5 74.5,154.5 74.5,149.5C 74.5,144.5 74.5,139.5 74.5,134.5C 79.5,134.5 84.5,134.5 89.5,134.5C 89.5,129.5 89.5,124.5 89.5,119.5C 91.1667,119.5 92.8333,119.5 94.5,119.5C 94.1724,130.014 94.5058,140.347 95.5,150.5 Z"/></g>
<g><path style="opacity:1" fill="#f2f2f2" d="M 149.5,173.5 C 174.5,173.5 199.5,173.5 224.5,173.5C 224.5,175.5 224.5,177.5 224.5,179.5C 229.5,179.5 234.5,179.5 239.5,179.5C 239.5,183.5 239.5,187.5 239.5,191.5C 236.615,191.194 233.948,191.527 231.5,192.5C 231.167,193.167 230.833,193.833 230.5,194.5C 228.5,194.5 226.5,194.5 224.5,194.5C 224.5,199.5 224.5,204.5 224.5,209.5C 226.167,209.5 227.833,209.5 229.5,209.5C 229.5,214.5 229.5,219.5 229.5,224.5C 227.549,224.773 226.049,224.107 225,222.5C 224.79,224.058 224.29,225.391 223.5,226.5C 223.44,223.659 222.774,220.993 221.5,218.5C 221.167,216.167 219.833,214.833 217.5,214.5C 216.508,214.672 215.842,214.338 215.5,213.5C 213.71,212.003 211.544,211.336 209,211.5C 207.5,211.667 206,211.833 204.5,212C 203.944,212.383 203.611,212.883 203.5,213.5C 202.508,213.328 201.842,213.662 201.5,214.5C 199.097,214.393 197.264,215.393 196,217.5C 195.51,216.207 195.343,214.873 195.5,213.5C 191.629,213.185 187.962,213.518 184.5,214.5C 184.5,225.833 184.5,237.167 184.5,248.5C 183.707,236.97 183.04,225.47 182.5,214C 186.297,212.576 190.297,212.076 194.5,212.5C 194.5,211.5 194.5,210.5 194.5,209.5C 189.5,209.5 184.5,209.5 179.5,209.5C 179.5,204.5 179.5,199.5 179.5,194.5C 174.5,194.5 169.5,194.5 164.5,194.5C 164.5,189.5 164.5,184.5 164.5,179.5C 159.5,179.5 154.5,179.5 149.5,179.5C 149.5,177.5 149.5,175.5 149.5,173.5 Z"/></g>
<g><path style="opacity:1" fill="#fefffe" d="M -0.5,179.5 C 4.5,179.5 9.5,179.5 14.5,179.5C 14.5,184.5 14.5,189.5 14.5,194.5C 9.5,194.5 4.5,194.5 -0.5,194.5C -0.5,189.5 -0.5,184.5 -0.5,179.5 Z"/></g>
<g><path style="opacity:1" fill="#edeeed" d="M 14.5,179.5 C 19.5,179.5 24.5,179.5 29.5,179.5C 29.5,184.5 29.5,189.5 29.5,194.5C 24.5,194.5 19.5,194.5 14.5,194.5C 14.5,189.5 14.5,184.5 14.5,179.5 Z"/></g>
<g><path style="opacity:1" fill="#fefffe" d="M 29.5,179.5 C 34.5,179.5 39.5,179.5 44.5,179.5C 44.5,184.5 44.5,189.5 44.5,194.5C 39.5,194.5 34.5,194.5 29.5,194.5C 29.5,189.5 29.5,184.5 29.5,179.5 Z"/></g>
<g><path style="opacity:1" fill="#edeeed" d="M 44.5,179.5 C 49.5,179.5 54.5,179.5 59.5,179.5C 59.5,184.5 59.5,189.5 59.5,194.5C 54.5,194.5 49.5,194.5 44.5,194.5C 44.5,189.5 44.5,184.5 44.5,179.5 Z"/></g>
<g><path style="opacity:1" fill="#fefffe" d="M 59.5,179.5 C 64.5,179.5 69.5,179.5 74.5,179.5C 74.5,184.5 74.5,189.5 74.5,194.5C 69.5,194.5 64.5,194.5 59.5,194.5C 59.5,189.5 59.5,184.5 59.5,179.5 Z"/></g>
<g><path style="opacity:1" fill="#f6f6f6" d="M 254.5,164.5 C 259.5,164.5 264.5,164.5 269.5,164.5C 269.5,169.5 269.5,174.5 269.5,179.5C 274.5,179.5 279.5,179.5 284.5,179.5C 284.5,184.5 284.5,189.5 284.5,194.5C 284.5,199.5 284.5,204.5 284.5,209.5C 279.5,209.5 274.5,209.5 269.5,209.5C 269.5,214.5 269.5,219.5 269.5,224.5C 274.5,224.5 279.5,224.5 284.5,224.5C 284.5,229.5 284.5,234.5 284.5,239.5C 279.5,239.5 274.5,239.5 269.5,239.5C 269.5,243.167 269.5,246.833 269.5,250.5C 268.5,249.833 267.5,249.167 266.5,248.5C 261.74,244.077 257.74,239.077 254.5,233.5C 254.351,232.448 254.517,231.448 255,230.5C 258.773,227.236 261.94,223.57 264.5,219.5C 268.165,217.626 268.165,216.293 264.5,215.5C 262.847,215.34 261.514,214.674 260.5,213.5C 260.103,212.475 259.437,212.308 258.5,213C 256.536,214.451 255.203,216.284 254.5,218.5C 251.72,222.421 248.72,226.087 245.5,229.5C 243.84,217.701 242.84,205.701 242.5,193.5C 239.038,192.518 235.371,192.185 231.5,192.5C 233.948,191.527 236.615,191.194 239.5,191.5C 239.5,187.5 239.5,183.5 239.5,179.5C 234.5,179.5 229.5,179.5 224.5,179.5C 224.5,177.5 224.5,175.5 224.5,173.5C 236.2,175.418 246.2,172.418 254.5,164.5 Z"/></g>
<g><path style="opacity:1" fill="#edeeed" d="M -0.5,194.5 C 4.5,194.5 9.5,194.5 14.5,194.5C 14.5,199.5 14.5,204.5 14.5,209.5C 9.5,209.5 4.5,209.5 -0.5,209.5C -0.5,204.5 -0.5,199.5 -0.5,194.5 Z"/></g>
<g><path style="opacity:1" fill="#fefffe" d="M 14.5,194.5 C 19.5,194.5 24.5,194.5 29.5,194.5C 29.5,199.5 29.5,204.5 29.5,209.5C 24.5,209.5 19.5,209.5 14.5,209.5C 14.5,204.5 14.5,199.5 14.5,194.5 Z"/></g>
<g><path style="opacity:1" fill="#151516" d="M 128.5,194.5 C 128.5,214.833 128.5,235.167 128.5,255.5C 125.167,255.5 121.833,255.5 118.5,255.5C 118.5,235.167 118.5,214.833 118.5,194.5C 121.833,193.167 125.167,193.167 128.5,194.5 Z"/></g>
<g><path style="opacity:1" fill="#777778" d="M 232.5,194.5 C 235.625,193.521 238.958,193.187 242.5,193.5C 242.84,205.701 243.84,217.701 245.5,229.5C 244.791,230.404 243.791,230.737 242.5,230.5C 242.5,218.5 242.5,206.5 242.5,194.5C 239.167,194.5 235.833,194.5 232.5,194.5 Z"/></g>
<g><path style="opacity:1" fill="#cdcfcd" d="M 231.5,192.5 C 235.371,192.185 239.038,192.518 242.5,193.5C 238.958,193.187 235.625,193.521 232.5,194.5C 232.5,214.5 232.5,234.5 232.5,254.5C 232.5,254.833 232.5,255.167 232.5,255.5C 231.883,255.389 231.383,255.056 231,254.5C 230.5,234.503 230.333,214.503 230.5,194.5C 230.833,193.833 231.167,193.167 231.5,192.5 Z"/></g>
<g><path style="opacity:1" fill="#fefffe" d="M -0.5,209.5 C 4.5,209.5 9.5,209.5 14.5,209.5C 14.5,214.5 14.5,219.5 14.5,224.5C 9.5,224.5 4.5,224.5 -0.5,224.5C -0.5,219.5 -0.5,214.5 -0.5,209.5 Z"/></g>
<g><path style="opacity:1" fill="#f1f1f1" d="M 29.5,194.5 C 34.5,194.5 39.5,194.5 44.5,194.5C 49.5,194.5 54.5,194.5 59.5,194.5C 64.5,194.5 69.5,194.5 74.5,194.5C 74.5,199.5 74.5,204.5 74.5,209.5C 79.5,209.5 84.5,209.5 89.5,209.5C 89.5,204.5 89.5,199.5 89.5,194.5C 94.5,194.5 99.5,194.5 104.5,194.5C 104.5,199.5 104.5,204.5 104.5,209.5C 108.167,209.5 111.833,209.5 115.5,209.5C 115.5,214.5 115.5,219.5 115.5,224.5C 114.325,224.281 113.325,224.614 112.5,225.5C 114.243,235.077 115.243,244.743 115.5,254.5C 111.833,254.5 108.167,254.5 104.5,254.5C 104.5,259.5 104.5,264.5 104.5,269.5C 99.5,269.5 94.5,269.5 89.5,269.5C 89.5,274.5 89.5,279.5 89.5,284.5C 84.5,284.5 79.5,284.5 74.5,284.5C 74.5,282.167 74.5,279.833 74.5,277.5C 72.5853,277.784 70.9187,277.451 69.5,276.5C 68.5318,274.393 68.1984,272.059 68.5,269.5C 65.5,269.5 62.5,269.5 59.5,269.5C 59.5,274.5 59.5,279.5 59.5,284.5C 54.5,284.5 49.5,284.5 44.5,284.5C 44.5,279.5 44.5,274.5 44.5,269.5C 39.5,269.5 34.5,269.5 29.5,269.5C 29.5,264.5 29.5,259.5 29.5,254.5C 24.5,254.5 19.5,254.5 14.5,254.5C 14.5,249.5 14.5,244.5 14.5,239.5C 14.5,234.5 14.5,229.5 14.5,224.5C 14.5,219.5 14.5,214.5 14.5,209.5C 19.5,209.5 24.5,209.5 29.5,209.5C 29.5,204.5 29.5,199.5 29.5,194.5 Z"/></g>
<g><path style="opacity:1" fill="#fafafa" d="M 284.5,194.5 C 289.5,194.5 294.5,194.5 299.5,194.5C 299.5,199.5 299.5,204.5 299.5,209.5C 304.5,209.5 309.5,209.5 314.5,209.5C 314.5,214.5 314.5,219.5 314.5,224.5C 319.5,224.5 324.5,224.5 329.5,224.5C 329.5,229.5 329.5,234.5 329.5,239.5C 334.5,239.5 339.5,239.5 344.5,239.5C 344.5,244.5 344.5,249.5 344.5,254.5C 339.5,254.5 334.5,254.5 329.5,254.5C 329.5,259.5 329.5,264.5 329.5,269.5C 324.5,269.5 319.5,269.5 314.5,269.5C 314.5,274.5 314.5,279.5 314.5,284.5C 309.5,284.5 304.5,284.5 299.5,284.5C 299.5,279.5 299.5,274.5 299.5,269.5C 294.5,269.5 289.5,269.5 284.5,269.5C 284.5,274.5 284.5,279.5 284.5,284.5C 279.5,284.5 274.5,284.5 269.5,284.5C 269.5,279.5 269.5,274.5 269.5,269.5C 264.5,269.5 259.5,269.5 254.5,269.5C 254.5,264.5 254.5,259.5 254.5,254.5C 256.292,254.366 257.958,254.699 259.5,255.5C 261.965,255.233 264.299,254.566 266.5,253.5C 267.5,253.5 268.5,253.5 269.5,253.5C 269.5,252.5 269.5,251.5 269.5,250.5C 269.5,246.833 269.5,243.167 269.5,239.5C 274.5,239.5 279.5,239.5 284.5,239.5C 284.5,234.5 284.5,229.5 284.5,224.5C 279.5,224.5 274.5,224.5 269.5,224.5C 269.5,219.5 269.5,214.5 269.5,209.5C 274.5,209.5 279.5,209.5 284.5,209.5C 284.5,204.5 284.5,199.5 284.5,194.5 Z"/></g>
<g><path style="opacity:1" fill="#141415" d="M 49.5,218.5 C 45.576,222.093 45.9093,225.593 50.5,229C 52.4048,230.421 54.4048,231.588 56.5,232.5C 66.2286,241.117 65.562,248.784 54.5,255.5C 49.453,255.663 44.453,255.329 39.5,254.5C 38.019,253.579 36.6856,252.412 35.5,251C 36.1476,249.56 36.4809,248.06 36.5,246.5C 39.4561,248.441 42.7894,249.774 46.5,250.5C 48.3545,250.66 49.6879,249.993 50.5,248.5C 53.6535,246.472 54.1535,243.805 52,240.5C 51.1841,239.177 50.0174,238.511 48.5,238.5C 44.5621,235.065 40.7288,231.398 37,227.5C 36.2782,224.739 36.4448,222.073 37.5,219.5C 39.1667,218.5 40.5,217.167 41.5,215.5C 48.2682,211.394 54.9348,211.727 61.5,216.5C 60.9169,218.002 60.0836,219.335 59,220.5C 56.0964,218.773 52.9297,218.107 49.5,218.5 Z"/></g>
<g><path style="opacity:1" fill="#141415" d="M 100.5,254.5 C 96.2147,255.295 91.8814,255.628 87.5,255.5C 86.5084,255.672 85.8417,255.338 85.5,254.5C 84.4154,252.413 82.7488,251.08 80.5,250.5C 79.6535,258.086 79.1535,266.419 79,275.5C 75.9433,276.451 72.7766,276.784 69.5,276.5C 69.5,255.5 69.5,234.5 69.5,213.5C 72.8333,213.5 76.1667,213.5 79.5,213.5C 78.563,220.765 80.2297,221.432 84.5,215.5C 101.227,209.554 110.56,215.554 112.5,233.5C 111.817,242.547 107.817,249.547 100.5,254.5 Z"/></g>
<g><path style="opacity:1" fill="#7d7e7f" d="M 260.5,213.5 C 258.5,215.167 256.5,216.833 254.5,218.5C 255.203,216.284 256.536,214.451 258.5,213C 259.437,212.308 260.103,212.475 260.5,213.5 Z"/></g>
<g><path style="opacity:1" fill="#131314" d="M 232.5,194.5 C 235.833,194.5 239.167,194.5 242.5,194.5C 242.5,206.5 242.5,218.5 242.5,230.5C 243.791,230.737 244.791,230.404 245.5,229.5C 248.72,226.087 251.72,222.421 254.5,218.5C 256.5,216.833 258.5,215.167 260.5,213.5C 261.514,214.674 262.847,215.34 264.5,215.5C 265.405,216.702 265.405,218.036 264.5,219.5C 260.536,222.963 256.702,226.63 253,230.5C 252.415,231.998 252.915,232.998 254.5,233.5C 257.74,239.077 261.74,244.077 266.5,248.5C 266.511,250.017 267.177,251.184 268.5,252C 267.584,252.278 266.918,252.778 266.5,253.5C 264.299,254.566 261.965,255.233 259.5,255.5C 254.687,248.476 249.687,241.476 244.5,234.5C 244.217,233.711 243.717,233.044 243,232.5C 242.501,236.821 242.334,241.154 242.5,245.5C 242.5,245.833 242.5,246.167 242.5,246.5C 242.5,249.167 242.5,251.833 242.5,254.5C 239.167,254.5 235.833,254.5 232.5,254.5C 232.5,234.5 232.5,214.5 232.5,194.5 Z"/></g>
<g><path style="opacity:1" fill="#afb7b9" d="M 280.5,215.5 C 291.423,220.295 302.09,225.628 312.5,231.5C 313.631,233.074 313.798,234.741 313,236.5C 302.578,241.961 292.078,247.294 281.5,252.5C 280.24,250.647 280.24,248.814 281.5,247C 290.022,242.907 298.355,238.573 306.5,234C 298.324,229.412 289.991,225.078 281.5,221C 280.594,219.301 280.261,217.467 280.5,215.5 Z"/></g>
<g><path style="opacity:1" fill="#8a8d8e" d="M 41.5,215.5 C 40.5,217.167 39.1667,218.5 37.5,219.5C 37.8333,217.167 39.1667,215.833 41.5,215.5 Z"/></g>
<g><path style="opacity:1" fill="#818182" d="M 264.5,215.5 C 268.165,216.293 268.165,217.626 264.5,219.5C 265.405,218.036 265.405,216.702 264.5,215.5 Z"/></g>
<g><path style="opacity:1" fill="#818182" d="M 94.5,219.5 C 91.5229,219.684 88.8562,219.684 86.5,219.5C 89.1667,218.167 91.8333,218.167 94.5,219.5 Z"/></g>
<g><path style="opacity:1" fill="#999b9c" d="M 49.5,218.5 C 48.6103,220.782 48.4436,223.115 49,225.5C 51.8598,227.502 54.3598,229.835 56.5,232.5C 54.4048,231.588 52.4048,230.421 50.5,229C 45.9093,225.593 45.576,222.093 49.5,218.5 Z"/></g>
<g><path style="opacity:1" fill="#838485" d="M 85.5,220.5 C 84.5,222.167 83.1667,223.5 81.5,224.5C 81.8333,222.167 83.1667,220.833 85.5,220.5 Z"/></g>
<g><path style="opacity:1" fill="#edeeed" d="M -0.5,224.5 C 4.5,224.5 9.5,224.5 14.5,224.5C 14.5,229.5 14.5,234.5 14.5,239.5C 9.5,239.5 4.5,239.5 -0.5,239.5C -0.5,234.5 -0.5,229.5 -0.5,224.5 Z"/></g>
<g><path style="opacity:1" fill="#abadad" d="M 264.5,219.5 C 261.94,223.57 258.773,227.236 255,230.5C 254.517,231.448 254.351,232.448 254.5,233.5C 252.915,232.998 252.415,231.998 253,230.5C 256.702,226.63 260.536,222.963 264.5,219.5 Z"/></g>
<g><path style="opacity:1" fill="#7e7e7f" d="M 244.5,234.5 C 243.833,238.167 243.167,241.833 242.5,245.5C 242.334,241.154 242.501,236.821 243,232.5C 243.717,233.044 244.217,233.711 244.5,234.5 Z"/></g>
<g><path style="opacity:1" fill="#8c8d8f" d="M 99.5,224.5 C 101.006,227.356 101.672,230.523 101.5,234C 101.496,236.361 101.163,238.527 100.5,240.5C 100.608,235.13 100.275,229.797 99.5,224.5 Z"/></g>
<g><path style="opacity:1" fill="#fefffe" d="M -0.5,239.5 C 4.5,239.5 9.5,239.5 14.5,239.5C 14.5,244.5 14.5,249.5 14.5,254.5C 9.5,254.5 4.5,254.5 -0.5,254.5C -0.5,249.5 -0.5,244.5 -0.5,239.5 Z"/></g>
<g><path style="opacity:1" fill="#f2f3f3" d="M 86.5,219.5 C 88.8562,219.684 91.5229,219.684 94.5,219.5C 97.1667,220.167 98.8333,221.833 99.5,224.5C 100.275,229.797 100.608,235.13 100.5,240.5C 100.598,242.553 99.9313,244.22 98.5,245.5C 96.8333,246.5 95.5,247.833 94.5,249.5C 93.8333,249.833 93.1667,250.167 92.5,250.5C 88.2693,249.637 84.6026,247.637 81.5,244.5C 80.7784,244.082 80.2784,243.416 80,242.5C 79.8333,240 79.6667,237.5 79.5,235C 79.3037,231.195 79.9704,227.695 81.5,224.5C 83.1667,223.5 84.5,222.167 85.5,220.5C 85.5,219.833 85.8333,219.5 86.5,219.5 Z"/></g>
<g><path style="opacity:1" fill="#a5a6a6" d="M 48.5,238.5 C 50.0174,238.511 51.1841,239.177 52,240.5C 54.1535,243.805 53.6535,246.472 50.5,248.5C 52.1948,244.664 51.5281,241.33 48.5,238.5 Z"/></g>
<g><path style="opacity:1" fill="#9a9d9f" d="M 81.5,244.5 C 84.6026,247.637 88.2693,249.637 92.5,250.5C 87.1481,251.328 83.4815,249.328 81.5,244.5 Z"/></g>
<g><path style="opacity:1" fill="#737374" d="M 98.5,245.5 C 98.1667,247.833 96.8333,249.167 94.5,249.5C 95.5,247.833 96.8333,246.5 98.5,245.5 Z"/></g>
<g><path style="opacity:1" fill="#666667" d="M 266.5,248.5 C 267.5,249.167 268.5,249.833 269.5,250.5C 269.5,251.5 269.5,252.5 269.5,253.5C 268.5,253.5 267.5,253.5 266.5,253.5C 266.918,252.778 267.584,252.278 268.5,252C 267.177,251.184 266.511,250.017 266.5,248.5 Z"/></g>
<g><path style="opacity:1" fill="#6c6c6c" d="M 80.5,250.5 C 82.7488,251.08 84.4154,252.413 85.5,254.5C 83.2512,253.92 81.5846,252.587 80.5,250.5 Z"/></g>
<g><path style="opacity:1" fill="#f8f8f8" d="M 104.5,194.5 C 108.5,194.5 112.5,194.5 116.5,194.5C 116.5,205.833 116.5,217.167 116.5,228.5C 116.173,237.682 116.507,246.682 117.5,255.5C 119.348,259.854 120.015,264.52 119.5,269.5C 124.5,269.5 129.5,269.5 134.5,269.5C 134.5,274.5 134.5,279.5 134.5,284.5C 139.5,284.5 144.5,284.5 149.5,284.5C 149.5,279.5 149.5,274.5 149.5,269.5C 154.5,269.5 159.5,269.5 164.5,269.5C 164.5,274.5 164.5,279.5 164.5,284.5C 169.5,284.5 174.5,284.5 179.5,284.5C 179.5,279.5 179.5,274.5 179.5,269.5C 184.5,269.5 189.5,269.5 194.5,269.5C 194.5,265.5 194.5,261.5 194.5,257.5C 191.15,257.665 187.817,257.498 184.5,257C 188.633,257.094 192.299,256.26 195.5,254.5C 195.5,246.5 195.5,238.5 195.5,230.5C 196.124,228.166 196.957,225.833 198,223.5C 201.73,224.46 205.563,224.793 209.5,224.5C 209.5,229.5 209.5,234.5 209.5,239.5C 205.167,239.5 200.833,239.5 196.5,239.5C 196.5,244.5 196.5,249.5 196.5,254.5C 200.833,254.5 205.167,254.5 209.5,254.5C 209.5,259.5 209.5,264.5 209.5,269.5C 214.5,269.5 219.5,269.5 224.5,269.5C 225.267,256.172 225.433,242.839 225,229.5C 224.722,228.584 224.222,227.918 223.5,227.5C 223.5,227.167 223.5,226.833 223.5,226.5C 224.29,225.391 224.79,224.058 225,222.5C 226.049,224.107 227.549,224.773 229.5,224.5C 229.5,219.5 229.5,214.5 229.5,209.5C 227.833,209.5 226.167,209.5 224.5,209.5C 224.5,204.5 224.5,199.5 224.5,194.5C 226.5,194.5 228.5,194.5 230.5,194.5C 230.333,214.503 230.5,234.503 231,254.5C 231.383,255.056 231.883,255.389 232.5,255.5C 236.167,255.5 239.833,255.5 243.5,255.5C 243.81,252.287 243.477,249.287 242.5,246.5C 242.5,246.167 242.5,245.833 242.5,245.5C 243.167,241.833 243.833,238.167 244.5,234.5C 249.687,241.476 254.687,248.476 259.5,255.5C 257.958,254.699 256.292,254.366 254.5,254.5C 254.5,259.5 254.5,264.5 254.5,269.5C 259.5,269.5 264.5,269.5 269.5,269.5C 269.5,274.5 269.5,279.5 269.5,284.5C 274.5,284.5 279.5,284.5 284.5,284.5C 284.5,279.5 284.5,274.5 284.5,269.5C 289.5,269.5 294.5,269.5 299.5,269.5C 299.5,274.5 299.5,279.5 299.5,284.5C 304.5,284.5 309.5,284.5 314.5,284.5C 314.5,279.5 314.5,274.5 314.5,269.5C 319.5,269.5 324.5,269.5 329.5,269.5C 334.5,269.5 339.5,269.5 344.5,269.5C 344.5,274.5 344.5,279.5 344.5,284.5C 339.056,283.892 334.056,284.558 329.5,286.5C 219.5,286.5 109.5,286.5 -0.5,286.5C -0.5,275.833 -0.5,265.167 -0.5,254.5C 4.5,254.5 9.5,254.5 14.5,254.5C 19.5,254.5 24.5,254.5 29.5,254.5C 29.5,259.5 29.5,264.5 29.5,269.5C 34.5,269.5 39.5,269.5 44.5,269.5C 44.5,274.5 44.5,279.5 44.5,284.5C 49.5,284.5 54.5,284.5 59.5,284.5C 59.5,279.5 59.5,274.5 59.5,269.5C 62.5,269.5 65.5,269.5 68.5,269.5C 68.1984,272.059 68.5318,274.393 69.5,276.5C 70.9187,277.451 72.5853,277.784 74.5,277.5C 74.5,279.833 74.5,282.167 74.5,284.5C 79.5,284.5 84.5,284.5 89.5,284.5C 89.5,279.5 89.5,274.5 89.5,269.5C 94.5,269.5 99.5,269.5 104.5,269.5C 104.5,264.5 104.5,259.5 104.5,254.5C 108.167,254.5 111.833,254.5 115.5,254.5C 115.243,244.743 114.243,235.077 112.5,225.5C 113.325,224.614 114.325,224.281 115.5,224.5C 115.5,219.5 115.5,214.5 115.5,209.5C 111.833,209.5 108.167,209.5 104.5,209.5C 104.5,204.5 104.5,199.5 104.5,194.5 Z"/></g>
<g><path style="opacity:1" fill="#797b7c" d="M 100.5,254.5 C 98.3655,256.033 95.8655,256.7 93,256.5C 90.9674,256.494 89.134,256.161 87.5,255.5C 91.8814,255.628 96.2147,255.295 100.5,254.5 Z"/></g>
<g><path style="opacity:1" fill="#7f8080" d="M 39.5,254.5 C 44.453,255.329 49.453,255.663 54.5,255.5C 50.3537,256.647 46.0204,256.814 41.5,256C 40.5842,255.722 39.9175,255.222 39.5,254.5 Z"/></g>
<g><path style="opacity:1" fill="#606060" d="M 242.5,246.5 C 243.477,249.287 243.81,252.287 243.5,255.5C 239.833,255.5 236.167,255.5 232.5,255.5C 232.5,255.167 232.5,254.833 232.5,254.5C 235.833,254.5 239.167,254.5 242.5,254.5C 242.5,251.833 242.5,249.167 242.5,246.5 Z"/></g>
<g><path style="opacity:1" fill="#ebebeb" d="M 223.5,227.5 C 224.222,227.918 224.722,228.584 225,229.5C 225.433,242.839 225.267,256.172 224.5,269.5C 219.5,269.5 214.5,269.5 209.5,269.5C 209.5,264.5 209.5,259.5 209.5,254.5C 205.167,254.5 200.833,254.5 196.5,254.5C 196.5,249.5 196.5,244.5 196.5,239.5C 200.833,239.5 205.167,239.5 209.5,239.5C 209.5,234.5 209.5,229.5 209.5,224.5C 205.563,224.793 201.73,224.46 198,223.5C 196.957,225.833 196.124,228.166 195.5,230.5C 193.958,225.74 195.624,222.24 200.5,220C 205.324,218.594 209.324,219.76 212.5,223.5C 213.477,234.115 213.81,244.781 213.5,255.5C 216.833,255.5 220.167,255.5 223.5,255.5C 223.5,246.167 223.5,236.833 223.5,227.5 Z"/></g>
<g><path style="opacity:1" fill="#c2c6c6" d="M 175.5,213.5 C 176.222,213.918 176.722,214.584 177,215.5C 177.167,222 177.333,228.5 177.5,235C 177.497,241.869 176.83,248.369 175.5,254.5C 175.5,240.833 175.5,227.167 175.5,213.5 Z"/></g>
<g><path style="opacity:1" fill="#787979" d="M 184.5,214.5 C 187.962,213.518 191.629,213.185 195.5,213.5C 195.343,214.873 195.51,216.207 196,217.5C 197.264,215.393 199.097,214.393 201.5,214.5C 199.544,216.114 197.544,217.781 195.5,219.5C 194.548,217.955 194.215,216.288 194.5,214.5C 191.167,214.5 187.833,214.5 184.5,214.5 Z"/></g>
<g><path style="opacity:1" fill="#161617" d="M 203.5,213.5 C 207.5,213.5 211.5,213.5 215.5,213.5C 215.842,214.338 216.508,214.672 217.5,214.5C 218.5,216.167 219.833,217.5 221.5,218.5C 222.774,220.993 223.44,223.659 223.5,226.5C 223.5,226.833 223.5,227.167 223.5,227.5C 223.5,236.833 223.5,246.167 223.5,255.5C 220.167,255.5 216.833,255.5 213.5,255.5C 213.81,244.781 213.477,234.115 212.5,223.5C 209.324,219.76 205.324,218.594 200.5,220C 195.624,222.24 193.958,225.74 195.5,230.5C 195.5,238.5 195.5,246.5 195.5,254.5C 191.587,255.596 187.587,255.762 183.5,255C 184.423,252.959 184.756,250.792 184.5,248.5C 184.5,237.167 184.5,225.833 184.5,214.5C 187.833,214.5 191.167,214.5 194.5,214.5C 194.215,216.288 194.548,217.955 195.5,219.5C 197.544,217.781 199.544,216.114 201.5,214.5C 201.842,213.662 202.508,213.328 203.5,213.5 Z"/></g>
<g><path style="opacity:1" fill="#141415" d="M 165.5,213.5 C 168.833,213.5 172.167,213.5 175.5,213.5C 175.5,227.167 175.5,240.833 175.5,254.5C 172.375,255.479 169.042,255.813 165.5,255.5C 165.962,248.431 164.296,247.764 160.5,253.5C 155.304,255.351 149.97,255.851 144.5,255C 141.333,253.167 138.833,250.667 137,247.5C 136.5,236.505 136.333,225.505 136.5,214.5C 139.833,214.5 143.167,214.5 146.5,214.5C 146.5,216.167 146.5,217.833 146.5,219.5C 146.26,227.875 146.593,236.208 147.5,244.5C 147.833,246.833 149.167,248.167 151.5,248.5C 157.366,250.49 161.866,248.823 165,243.5C 165.5,233.506 165.666,223.506 165.5,213.5 Z"/></g>
<g><path style="opacity:1" fill="#7c7c7d" d="M 217.5,214.5 C 219.833,214.833 221.167,216.167 221.5,218.5C 219.833,217.5 218.5,216.167 217.5,214.5 Z"/></g>
<g><path style="opacity:1" fill="#a8aaa9" d="M 215.5,213.5 C 211.5,213.5 207.5,213.5 203.5,213.5C 203.611,212.883 203.944,212.383 204.5,212C 206,211.833 207.5,211.667 209,211.5C 211.544,211.336 213.71,212.003 215.5,213.5 Z"/></g>
<g><path style="opacity:1" fill="#b0b7b9" d="M 118.5,194.5 C 118.5,214.833 118.5,235.167 118.5,255.5C 118.167,255.5 117.833,255.5 117.5,255.5C 116.507,246.682 116.173,237.682 116.5,228.5C 117.167,217.167 117.833,205.833 118.5,194.5 Z"/></g>
<g><path style="opacity:1" fill="#eeeeee" d="M 128.5,194.5 C 130.5,194.5 132.5,194.5 134.5,194.5C 134.5,199.5 134.5,204.5 134.5,209.5C 139.5,209.5 144.5,209.5 149.5,209.5C 149.124,218.074 148.457,226.574 147.5,235C 148.227,236.399 148.727,237.899 149,239.5C 149.499,234.511 149.666,229.511 149.5,224.5C 154.5,224.5 159.5,224.5 164.5,224.5C 164.185,220.629 164.518,216.962 165.5,213.5C 165.666,223.506 165.5,233.506 165,243.5C 161.866,248.823 157.366,250.49 151.5,248.5C 150.5,246.833 149.167,245.5 147.5,244.5C 146.593,236.208 146.26,227.875 146.5,219.5C 147.461,217.735 147.795,215.735 147.5,213.5C 143.629,213.185 139.962,213.518 136.5,214.5C 136.333,225.505 136.5,236.505 137,247.5C 138.833,250.667 141.333,253.167 144.5,255C 149.97,255.851 155.304,255.351 160.5,253.5C 164.296,247.764 165.962,248.431 165.5,255.5C 164.514,259.97 164.181,264.637 164.5,269.5C 159.5,269.5 154.5,269.5 149.5,269.5C 149.5,274.5 149.5,279.5 149.5,284.5C 144.5,284.5 139.5,284.5 134.5,284.5C 134.5,279.5 134.5,274.5 134.5,269.5C 129.5,269.5 124.5,269.5 119.5,269.5C 120.015,264.52 119.348,259.854 117.5,255.5C 117.833,255.5 118.167,255.5 118.5,255.5C 121.833,255.5 125.167,255.5 128.5,255.5C 128.5,235.167 128.5,214.833 128.5,194.5 Z"/></g>
<g><path style="opacity:1" fill="#636364" d="M 147.5,244.5 C 149.167,245.5 150.5,246.833 151.5,248.5C 149.167,248.167 147.833,246.833 147.5,244.5 Z"/></g>
<g><path style="opacity:1" fill="#6b6b6b" d="M 136.5,214.5 C 139.962,213.518 143.629,213.185 147.5,213.5C 147.795,215.735 147.461,217.735 146.5,219.5C 146.5,217.833 146.5,216.167 146.5,214.5C 143.167,214.5 139.833,214.5 136.5,214.5 Z"/></g>
<g><path style="opacity:1" fill="#fefefe" d="M 134.5,209.5 C 135.771,224.493 135.771,239.493 134.5,254.5C 132.833,254.5 131.167,254.5 129.5,254.5C 129.5,249.5 129.5,244.5 129.5,239.5C 131.167,239.5 132.833,239.5 134.5,239.5C 134.5,234.5 134.5,229.5 134.5,224.5C 132.833,224.5 131.167,224.5 129.5,224.5C 129.5,219.5 129.5,214.5 129.5,209.5C 131.167,209.5 132.833,209.5 134.5,209.5 Z"/></g>
</svg>
