<?xml version="1.0" encoding="UTF-8"?>
<!DOCTYPE svg PUBLIC "-//W3C//DTD SVG 1.1//EN" "http://www.w3.org/Graphics/SVG/1.1/DTD/svg11.dtd">
<svg xmlns="http://www.w3.org/2000/svg" version="1.1" width="1200px" height="1200px" style="shape-rendering:geometricPrecision; text-rendering:geometricPrecision; image-rendering:optimizeQuality; fill-rule:evenodd; clip-rule:evenodd" xmlns:xlink="http://www.w3.org/1999/xlink">
<g><path style="opacity:1" fill="#73c936" d="M 184.5,-0.5 C 461.167,-0.5 737.833,-0.5 1014.5,-0.5C 1102.19,12.0154 1161.02,60.0154 1191,143.5C 1194.92,157.082 1197.76,170.748 1199.5,184.5C 1199.5,461.167 1199.5,737.833 1199.5,1014.5C 1186.98,1102.19 1138.98,1161.02 1055.5,1191C 1041.92,1194.92 1028.25,1197.76 1014.5,1199.5C 737.833,1199.5 461.167,1199.5 184.5,1199.5C 113.802,1190.08 60.3019,1154.74 24,1093.5C 10.7052,1068.63 2.53854,1042.29 -0.5,1014.5C -0.5,737.833 -0.5,461.167 -0.5,184.5C 8.42735,113.458 43.7607,59.9583 105.5,24C 130.374,10.7052 156.707,2.53854 184.5,-0.5 Z"/></g>
<g><path style="opacity:1" fill="#fefefe" d="M 412.5,239.5 C 564.803,357.991 717.137,476.491 869.5,595C 717.333,716.5 565.167,838 413,959.5C 384.973,920.973 357.14,882.306 329.5,843.5C 429.833,760.833 530.167,678.167 630.5,595.5C 530.389,513.938 430.056,432.604 329.5,351.5C 357.191,314.148 384.858,276.815 412.5,239.5 Z"/></g>
</svg>
